<?xml version="1.0" encoding="utf-8"?>
<!-- Generator: Adobe Illustrator 16.0.4, SVG Export Plug-In . SVG Version: 6.00 Build 0)  -->
<!DOCTYPE svg PUBLIC "-//W3C//DTD SVG 1.1//EN" "http://www.w3.org/Graphics/SVG/1.1/DTD/svg11.dtd">
<svg version="1.1" id="Layer_1" xmlns="http://www.w3.org/2000/svg" xmlns:xlink="http://www.w3.org/1999/xlink" x="0px" y="0px"
	 width="24px" height="24px" viewBox="0 0 24 24" enable-background="new 0 0 24 24" xml:space="preserve">
<path d="M18.565,3.937L11.14,18.789c-0.131,0.271-0.352,0.406-0.661,0.406c-0.039,0-0.097-0.009-0.175-0.023
	c-0.17-0.039-0.307-0.126-0.411-0.261c-0.105-0.137-0.157-0.289-0.157-0.459V11.77H3.052c-0.169,0-0.323-0.053-0.458-0.157
	c-0.135-0.104-0.222-0.242-0.261-0.412c-0.039-0.17-0.023-0.332,0.046-0.487c0.07-0.155,0.182-0.271,0.336-0.348l14.853-7.426
	c0.1-0.055,0.211-0.082,0.336-0.082c0.208,0,0.382,0.073,0.522,0.22c0.115,0.108,0.187,0.242,0.213,0.4
	C18.669,3.637,18.643,3.79,18.565,3.937z"/>
</svg>
