<?xml version="1.0" encoding="utf-8"?>
<!-- Generator: Adobe Illustrator 16.0.4, SVG Export Plug-In . SVG Version: 6.00 Build 0)  -->
<!DOCTYPE svg PUBLIC "-//W3C//DTD SVG 1.1//EN" "http://www.w3.org/Graphics/SVG/1.1/DTD/svg11.dtd">
<svg version="1.1" id="Layer_1" xmlns="http://www.w3.org/2000/svg" xmlns:xlink="http://www.w3.org/1999/xlink" x="0px" y="0px"
	 width="24px" height="24px" viewBox="0 0 24 24" enable-background="new 0 0 24 24" xml:space="preserve">
<g transform="matrix(1 0 0 -1 0 1638)">
	<path d="M16.5,1630.688h-2.484c0,0.734-0.168,1.305-0.504,1.711s-0.848,0.609-1.535,0.609c-1.336,0-2.004-0.777-2.004-2.332v-2.801
		h8.578v-9.07H7.125c-0.461,0-0.855,0.164-1.184,0.492s-0.492,0.727-0.492,1.195v7.383H7.5v2.812c0,1.406,0.43,2.594,1.289,3.562
		s1.93,1.453,3.211,1.453s2.352-0.484,3.211-1.453S16.5,1632.094,16.5,1630.688z"/>
</g>
</svg>
