<?xml version="1.0" encoding="utf-8"?>
<!-- Generator: Adobe Illustrator 16.0.4, SVG Export Plug-In . SVG Version: 6.00 Build 0)  -->
<!DOCTYPE svg PUBLIC "-//W3C//DTD SVG 1.1//EN" "http://www.w3.org/Graphics/SVG/1.1/DTD/svg11.dtd">
<svg version="1.1" id="Layer_1" xmlns="http://www.w3.org/2000/svg" xmlns:xlink="http://www.w3.org/1999/xlink" x="0px" y="0px"
	 width="24px" height="24px" viewBox="0 0 24 24" enable-background="new 0 0 24 24" xml:space="preserve">
<g transform="matrix(1 0 0 -1 0 1638)">
	<path d="M11.555,1632.387H9.586v-6.586l4.477-2.578l0.141,0.246c0.234,0.398,0.289,0.82,0.164,1.266s-0.383,0.785-0.773,1.02
		l-2.039,1.195V1632.387z M10.758,1634.977c1.461,0,2.812-0.359,4.055-1.078c1.25-0.719,2.234-1.703,2.953-2.953
		c0.719-1.242,1.078-2.594,1.078-4.055s-0.359-2.812-1.078-4.055c-0.719-1.25-1.703-2.234-2.953-2.953
		c-1.242-0.719-2.594-1.078-4.055-1.078c-1.453,0-2.805,0.359-4.055,1.078s-2.234,1.703-2.953,2.953
		c-0.719,1.242-1.082,2.594-1.09,4.055c0.008,1.461,0.371,2.812,1.09,4.055c0.719,1.25,1.703,2.234,2.953,2.953
		S9.305,1634.977,10.758,1634.977z"/>
</g>
</svg>
