<?xml version="1.0" encoding="utf-8"?>
<!-- Generator: Adobe Illustrator 16.0.4, SVG Export Plug-In . SVG Version: 6.00 Build 0)  -->
<!DOCTYPE svg PUBLIC "-//W3C//DTD SVG 1.1//EN" "http://www.w3.org/Graphics/SVG/1.1/DTD/svg11.dtd">
<svg version="1.1" id="Layer_1" xmlns="http://www.w3.org/2000/svg" xmlns:xlink="http://www.w3.org/1999/xlink" x="0px" y="0px"
	 width="24px" height="24px" viewBox="0 0 24 24" enable-background="new 0 0 24 24" xml:space="preserve">
<g transform="matrix(1 0 0 -1 0 1638)">
	<path d="M18.551,1628.062c0.539,0,1-0.191,1.383-0.574s0.574-0.844,0.574-1.383s-0.191-0.996-0.574-1.371s-0.844-0.566-1.383-0.574
		c-0.539,0.008-1,0.199-1.383,0.574s-0.574,0.832-0.574,1.371s0.191,1,0.574,1.383S18.012,1628.062,18.551,1628.062z
		 M13.945,1626.105c0-0.539-0.188-0.996-0.562-1.371s-0.836-0.566-1.383-0.574c-0.539,0.008-1,0.199-1.383,0.574
		s-0.574,0.832-0.574,1.371s0.191,1,0.574,1.383s0.844,0.574,1.383,0.574c0.547,0,1.008-0.191,1.383-0.574
		S13.945,1626.645,13.945,1626.105z M7.395,1626.105c0-0.539-0.191-0.996-0.574-1.371s-0.844-0.566-1.383-0.574
		c-0.539,0.008-1,0.199-1.383,0.574s-0.574,0.832-0.574,1.371s0.191,1,0.574,1.383s0.844,0.574,1.383,0.574s1-0.191,1.383-0.574
		S7.395,1626.645,7.395,1626.105z"/>
</g>
</svg>
