<?xml version="1.0" encoding="utf-8"?>
<!-- Generator: Adobe Illustrator 16.0.4, SVG Export Plug-In . SVG Version: 6.00 Build 0)  -->
<!DOCTYPE svg PUBLIC "-//W3C//DTD SVG 1.1//EN" "http://www.w3.org/Graphics/SVG/1.1/DTD/svg11.dtd">
<svg version="1.1" id="Layer_1" xmlns="http://www.w3.org/2000/svg" xmlns:xlink="http://www.w3.org/1999/xlink" x="0px" y="0px"
	 width="24px" height="24px" viewBox="0 0 24 24" enable-background="new 0 0 24 24" xml:space="preserve">
<g transform="matrix(1 0 0 -1 0 1638)">
	<path d="M14.016,1629.938c0,1.562-0.672,2.344-2.016,2.344s-2.02-0.777-2.027-2.332v-2.074h4.043V1629.938z M16.5,1629.973v-2.098
		h2.051v-9.07H7.125c-0.461,0-0.855,0.164-1.184,0.492s-0.492,0.727-0.492,1.195v7.383H7.5v2.086c0,0.914,0.191,1.754,0.574,2.52
		s0.918,1.371,1.605,1.816s1.461,0.668,2.32,0.668c1.281,0.008,2.352-0.473,3.211-1.441S16.5,1631.371,16.5,1629.973z"/>
</g>
</svg>
