<?xml version="1.0" encoding="utf-8"?>
<!-- Generator: Adobe Illustrator 16.0.4, SVG Export Plug-In . SVG Version: 6.00 Build 0)  -->
<!DOCTYPE svg PUBLIC "-//W3C//DTD SVG 1.1//EN" "http://www.w3.org/Graphics/SVG/1.1/DTD/svg11.dtd">
<svg version="1.1" id="Layer_1" xmlns="http://www.w3.org/2000/svg" xmlns:xlink="http://www.w3.org/1999/xlink" x="0px" y="0px"
	 width="24px" height="24px" viewBox="0 0 24 24" enable-background="new 0 0 24 24" xml:space="preserve">
<g transform="matrix(1 0 0 -1 0 1638)">
	<path d="M17.203,1634.062c-0.688,0-1.031-0.395-1.031-1.184l0.012-1.043h2.051l-0.012,1.043
		C18.23,1633.668,17.891,1634.062,17.203,1634.062z M17.203,1635.434c0.648,0,1.191-0.246,1.629-0.738s0.656-1.094,0.656-1.805
		v-1.055h1.031v-4.594h-6.633v4.594h1.043v1.066c0,0.711,0.219,1.309,0.656,1.793S16.562,1635.426,17.203,1635.434z M12.75,1626.094
		h1.617l-7.547-6.797l-4.84-0.527l1.031,4.723l9.738,8.707v-1.559L4.289,1623c0.203-0.141,0.508-0.414,0.914-0.82l7.547,6.82
		V1626.094z"/>
</g>
</svg>
