<?xml version="1.0" encoding="utf-8"?>
<!-- Generator: Adobe Illustrator 16.0.4, SVG Export Plug-In . SVG Version: 6.00 Build 0)  -->
<!DOCTYPE svg PUBLIC "-//W3C//DTD SVG 1.1//EN" "http://www.w3.org/Graphics/SVG/1.1/DTD/svg11.dtd">
<svg version="1.1" id="Layer_1" xmlns="http://www.w3.org/2000/svg" xmlns:xlink="http://www.w3.org/1999/xlink" x="0px" y="0px"
	 width="24px" height="24px" viewBox="0 0 24 24" enable-background="new 0 0 24 24" xml:space="preserve">
<g transform="matrix(1 0 0 -1 0 1638)">
	<path d="M6.703,1631.473c-0.422,0-0.629,0.074-0.621,0.223v1.16c0,0.148,0.109,0.277,0.328,0.387s0.48,0.164,0.785,0.164
		l2.215,0.199l0.809,0.914h3.469l0.844-0.938l2.285-0.176c0.305,0,0.566-0.055,0.785-0.164s0.324-0.238,0.316-0.387v-1.16
		c-0.008-0.148-0.215-0.223-0.621-0.223H6.703z M15.516,1618.746h-7.02c-0.211-0.008-0.395,0.066-0.551,0.223
		s-0.234,0.34-0.234,0.551l-1.348,10.348h11.285l-1.336-10.348c0-0.203-0.078-0.383-0.234-0.539S15.734,1618.746,15.516,1618.746z"
		/>
</g>
</svg>
