<?xml version="1.0" encoding="utf-8"?>
<!-- Generator: Adobe Illustrator 16.0.4, SVG Export Plug-In . SVG Version: 6.00 Build 0)  -->
<!DOCTYPE svg PUBLIC "-//W3C//DTD SVG 1.1//EN" "http://www.w3.org/Graphics/SVG/1.1/DTD/svg11.dtd">
<svg version="1.1" id="Layer_1" xmlns="http://www.w3.org/2000/svg" xmlns:xlink="http://www.w3.org/1999/xlink" x="0px" y="0px"
	 width="753.988px" height="204.875px" viewBox="0 0 753.988 204.875" enable-background="new 0 0 753.988 204.875"
	 xml:space="preserve">
<image xlink:href="admin.svg" src="admin.png" width="81" />
<g>
	<path fill="#FFFFFF" d="M115.75,201.698v-18c-13.25,15-26.5,21.25-46,21.25c-40.5,0-69.75-30.25-69.75-72c0-42.25,29.5-73,70.5-73
		c20,0,33.75,6.5,45.25,21.75v-18.5h30.5v138.5H115.75z M74,90.447c-23.75,0-40.5,18-40.5,43.25c0,24.25,16.75,40.75,41,40.75
		c25.25,0,40.25-18,40.25-41C114.75,108.198,97.75,90.447,74,90.447z"/>
	<path fill="#FFFFFF" d="M280.247,201.698v-18c-13.25,15-27,21.25-45.75,21.25c-39.25,0-69.5-31.75-69.5-72.75
		c0-41.5,30.5-74,69.25-74c17.5,0,33.5,6.5,43.25,17.25v-58.5h33.25v184.75H280.247z M238.997,88.697c-22.75,0-40.5,18.5-40.5,42
		c0,24.5,18,43.75,41.25,43.75c22.5,0,40.25-18.75,40.25-42.75C279.997,107.448,262.247,88.697,238.997,88.697z"/>
	<path fill="#FFFFFF" d="M510.494,201.698v-76c0-27.75-10.5-35.25-26-35.25c-18.5,0-28,10-28,43v68.25h-33.25v-76
		c0-27.25-9.5-35.25-27-35.25c-19.25,0-27,10.25-27,43v68.25h-33.25v-138.5h30.5v13c9.75-11.75,19.75-16.25,36-16.25
		c19,0,31.25,6.5,40.75,21.5c11.25-15,25-21.5,44.5-21.5c36.5,0,56,20.25,56,61.75v80H510.494z"/>
	<path fill="#FFFFFF" d="M570.99,201.698v-138.5h33.25v138.5H570.99z M571.24,43.197V9.947h33.25v33.25H571.24z"/>
	<path fill="#FFFFFF" d="M720.738,201.698v-67.75c0-37-10-43.5-26.5-43.5c-10.5,0-19.25,4.5-24.5,12.75
		c-4.25,6.75-5.5,14.75-5.5,33.25v65.25h-33.25v-138.5h30.75v13.25c12.25-11.75,23.25-16.5,39-16.5c19.25,0,34.25,7,43.25,20
		c7.5,10.75,10,22.75,10,47.5v74.25H720.738z"/>
</g>
<path id="path3913_3_" fill="#ED2224" d="M581.944,143.568v11.626h-11.626v46.504h93.008v-46.504H651.7v-11.626h-23.252v11.626
	h-23.252v-11.626H581.944z"/>
<path id="path3915_2_" fill="#FDB515" d="M143.722,26.76l4.458,10.737l-10.737,4.458l17.842,42.949l85.891-35.678L223.338,6.279
	l-10.737,4.458L208.143,0l-21.475,8.921l4.46,10.738l-21.473,8.919l-4.46-10.738L143.722,26.76z"/>
</svg>
