<svg xmlns="http://www.w3.org/2000/svg" viewBox="0 0 330.3 126.4">
	<style>
		.wordmark{fill:#fff;} .brick0{fill:#0a0;} .brick1{fill:#f00;} .brick2{fill:#ffb600;} .brick3{fill:#00f;}
	</style>
	<path class="wordmark" d="M74.2 100.4V70c0-11.1-4.2-14.1-10.4-14.1-7.4 0-11.2 4-11.2 17.2v27.3H39.3V70c0-10.9-3.8-14.1-10.8-14.1-7.7 0-10.8 4.1-10.8 17.2v27.3H4.4V45h12.2v5.2c3.9-4.7 7.9-6.5 14.4-6.5 7.6 0 12.5 2.6 16.3 8.6 4.5-6 10-8.6 17.8-8.6 14.6 0 22.4 8.1 22.4 24.7v32H74.2zm79.1-21.8h-42.9c1.6 6.7 7.4 10.9 15.3 10.9 5.5 0 8.8-1.5 12.2-5.5h14.5c-3.7 11.4-15.2 17.7-26.4 17.7-16.9 0-30-12.6-30-28.8 0-16.3 12.9-29.2 29.2-29.2 16.5 0 28.6 12.6 28.6 29.8 0 2-.1 3.2-.5 5.1zm-27.9-22.7c-7.9 0-13.3 3.9-15.4 11h30.7c-1.7-7.1-7.1-11-15.3-11zm52.3 1.2v43.3h-13.3V57.1h-6.5V45h6.5V26.5h13.3V45h8v12.1h-8zm57.6 43.3v-7.2c-5.3 6-10.6 8.5-18.4 8.5-16.2 0-27.9-12.1-27.9-28.8 0-16.9 11.8-29.2 28.2-29.2 8 0 13.5 2.6 18.1 8.7V45h12.2v55.4h-12.2zm-16.7-44.5c-9.5 0-16.2 7.2-16.2 17.3 0 9.7 6.7 16.3 16.4 16.3 10.1 0 16.1-7.2 16.1-16.4 0-10.1-6.8-17.2-16.3-17.2z"/>
  	<path class="brick0" d="M198.652 75.32h-10v5h-10v-5h-10v5h-5v20h40v-20h-5v-5z"/>
  	<path class="brick1" d="M279.752 75.32v5h-10v-5h-10v5h-5v20h40v-20h-5v-5h-10z"/>
  	<path class="brick2" d="M320.752 74.12l-4.2 2.7-5.4-8.4 4.2-2.7-5.4-8.4-4.2 2.7-2.7-4.2-16.8 10.9 21.8 33.5 16.8-10.9-2.7-4.2 4.2-2.7-5.6-8.3z"/>
  	<path class="brick3" d="M82.6 20.2L80 24.5l-4.3-2.6-10.5 17 34 21 10.5-17-4.3-2.6L108 36l-8.5-5.3L97 35l-8.5-5.3 2.6-4.3-8.5-5.2z"/>
</svg>
