<?xml version="1.0" encoding="UTF-8" standalone="no"?>
<!-- Created with Inkscape (http://www.inkscape.org/) -->

<svg
   xmlns:dc="http://purl.org/dc/elements/1.1/"
   xmlns:cc="http://creativecommons.org/ns#"
   xmlns:rdf="http://www.w3.org/1999/02/22-rdf-syntax-ns#"
   xmlns:svg="http://www.w3.org/2000/svg"
   xmlns="http://www.w3.org/2000/svg"
   xmlns:sodipodi="http://sodipodi.sourceforge.net/DTD/sodipodi-0.dtd"
   xmlns:inkscape="http://www.inkscape.org/namespaces/inkscape"
   id="svg3061"
   version="1.1"
   inkscape:version="0.48.4 r9939"
   width="138"
   height="30.151598"
   sodipodi:docname="Brickipedia-White.svg"
   xmlns:xlink="http://www.w3.org/1999/xlink">
<image xlink:href="brickipedia.svg" src="brickipedia.png" width="138" />
  <metadata
     id="metadata3067">
    <rdf:RDF>
      <cc:Work
         rdf:about="">
        <dc:format>image/svg+xml</dc:format>
        <dc:type
           rdf:resource="http://purl.org/dc/dcmitype/StillImage" />
        <dc:title />
      </cc:Work>
    </rdf:RDF>
  </metadata>
  <defs
     id="defs3065" />
  <sodipodi:namedview
     pagecolor="#ffffff"
     bordercolor="#666666"
     borderopacity="1"
     objecttolerance="10"
     gridtolerance="10"
     guidetolerance="10"
     inkscape:pageopacity="0"
     inkscape:pageshadow="2"
     inkscape:window-width="1366"
     inkscape:window-height="703"
     id="namedview3063"
     showgrid="false"
     inkscape:snap-grids="true"
     inkscape:snap-bbox="true"
     inkscape:object-nodes="true"
     inkscape:snap-global="true"
     inkscape:snap-nodes="false"
     fit-margin-top="0"
     fit-margin-left="0"
     fit-margin-right="0"
     fit-margin-bottom="0"
     inkscape:zoom="12.334651"
     inkscape:cx="43.862095"
     inkscape:cy="17.61119"
     inkscape:window-x="0"
     inkscape:window-y="28"
     inkscape:window-maximized="1"
     inkscape:current-layer="svg3061">
    <inkscape:grid
       type="xygrid"
       id="grid3849"
       empspacing="5"
       dotted="true"
       visible="true"
       enabled="true"
       snapvisiblegridlinesonly="true"
       originx="-2.520621e-09px"
       originy="-88.748404px" />
  </sodipodi:namedview>
  <g
     id="g3917"
     transform="matrix(0.25349881,0,0,0.25358786,-0.84879057,1.7802284)">
    <path
       d="m 61.748302,65.279837 c 0,-16.699983 -12.000016,-29.3 -27.9,-29.3 -7.199993,0 -12.100005,2.000005 -17.2,7.1 l 0,-23.6 -13.3,0 0,73.9 12.2,0 0,-7.1 c 5.699994,6.099994 11.000008,8.4 19.2,8.4 15.599984,0 27,-12.700017 27,-29.4 m -13.4,0.1 c 0,10.09999 -6.600009,17.1 -16.1,17.1 -9.59999,0 -16.4,-7.10001 -16.4,-17.2 0,-9.99999 6.800009,-17.1 16.1,-17.1 9.499991,0 16.4,7.30001 16.4,17.2"
       style="font-size:100px;font-style:normal;font-variant:normal;font-weight:bold;font-stretch:normal;line-height:125%;letter-spacing:0px;word-spacing:0px;fill:#ffffff;fill-opacity:1;stroke:none;font-family:TeXGyreAdventor;-inkscape-font-specification:TeXGyreAdventor Bold"
       id="path3859"
       inkscape:connector-curvature="0" />
    <path
       d="m 94.563927,49.479837 0,-12.8 -1,0 c -5.699994,0 -8.500003,1.600005 -12,6.7 l 0,-5.4 -12.2,0 0,55.4 13.3,0 0,-30.8 c 0,-8.599991 3.900008,-12.9 11.9,-13.1"
       style="font-size:100px;font-style:normal;font-variant:normal;font-weight:bold;font-stretch:normal;line-height:125%;letter-spacing:0px;word-spacing:0px;fill:#ffffff;fill-opacity:1;stroke:none;font-family:TeXGyreAdventor;-inkscape-font-specification:TeXGyreAdventor Bold"
       id="path3861"
       inkscape:connector-curvature="0" />
    <path
       d="m 114.69518,93.379837 0,-55.4 -13.3,0 0,55.4 13.3,0 m 0.1,-63.4 0,-13.3 -13.3,0 0,13.3 13.3,0"
       style="font-size:100px;font-style:normal;font-variant:normal;font-weight:bold;font-stretch:normal;line-height:125%;letter-spacing:0px;word-spacing:0px;fill:#ffffff;fill-opacity:1;stroke:none;font-family:TeXGyreAdventor;-inkscape-font-specification:TeXGyreAdventor Bold"
       id="path3863"
       inkscape:connector-curvature="0" />
    <path
       d="m 180.11861,75.179837 -15,0 c -3.29999,5.099995 -7.1,7.3 -12.6,7.3 -9.19999,0 -16.1,-7.20001 -16.1,-16.9 0,-9.69999 6.60001,-16.7 15.8,-16.7 6,0 10.20001,2.500005 12.9,7.6 l 15,0 c -4.29999,-12.699987 -15.30001,-19.8 -27.9,-19.8 -16.39998,0 -29.2,12.700016 -29.2,29 0,16.099984 13.20002,29 29.6,29 12.89999,0 22.90001,-7.100012 27.5,-19.5"
       style="font-size:100px;font-style:normal;font-variant:normal;font-weight:bold;font-stretch:normal;line-height:125%;letter-spacing:0px;word-spacing:0px;fill:#ffffff;fill-opacity:1;stroke:none;font-family:TeXGyreAdventor;-inkscape-font-specification:TeXGyreAdventor Bold"
       id="path3865"
       inkscape:connector-curvature="0" />
    <path
       d="m 239.58111,93.379837 -23,-28.3 19.8,-27.1 -15.9,0 -17.7,26.1 0,-44.6 -13.3,0 0,73.9 13.3,0 0,-25.9 18.9,25.9 17.9,0"
       style="font-size:100px;font-style:normal;font-variant:normal;font-weight:bold;font-stretch:normal;line-height:125%;letter-spacing:0px;word-spacing:0px;fill:#ffffff;fill-opacity:1;stroke:none;font-family:TeXGyreAdventor;-inkscape-font-specification:TeXGyreAdventor Bold"
       id="path3867"
       inkscape:connector-curvature="0" />
    <path
       id="path3905"
       d="m 260.78893,93.379837 0,-55.4 -13.3,0 0,55.4 13.3,0"
       style="font-size:100px;font-style:normal;font-variant:normal;font-weight:bold;font-stretch:normal;line-height:125%;letter-spacing:0px;word-spacing:0px;fill:#ffffff;fill-opacity:1;stroke:none;font-family:TeXGyreAdventor;-inkscape-font-specification:TeXGyreAdventor Bold"
       inkscape:connector-curvature="0" />
    <path
       d="m 329.51236,65.479837 c 0,-16.699983 -11.60001,-28.8 -27.6,-28.8 -7.49999,0 -13.9,2.800005 -18.2,7.8 l 0,-6.5 -12.2,0 0,73.900003 13.3,0 0,-23.700003 c 5,4.499996 10.20001,6.5 17,6.5 15.99999,0 27.7,-12.400017 27.7,-29.2 m -13.4,0.3 c 0,9.399991 -6.9,16.7 -15.7,16.7 -9.39999,0 -16.4,-7.20001 -16.4,-16.9 0,-9.49999 7.00001,-16.7 16.2,-16.7 9,0 15.9,7.30001 15.9,16.9"
       style="font-size:100px;font-style:normal;font-variant:normal;font-weight:bold;font-stretch:normal;line-height:125%;letter-spacing:0px;word-spacing:0px;fill:#ffffff;fill-opacity:1;stroke:none;font-family:TeXGyreAdventor;-inkscape-font-specification:TeXGyreAdventor Bold"
       id="path3871"
       inkscape:connector-curvature="0" />
    <path
       d="m 392.92799,66.479837 c 0,-17.199983 -12.10002,-29.8 -28.6,-29.8 -16.29998,0 -29.2,12.900016 -29.2,29.2 0,16.199984 13.10002,28.8 30,28.8 11.19999,0 22.7,-6.300011 26.4,-17.7 l -14.5,0 c -3.4,3.999996 -6.70001,5.5 -12.2,5.5 -7.89999,0 -13.7,-4.200007 -15.3,-10.9 l 42.9,0 c 0.4,-1.899998 0.5,-3.100002 0.5,-5.1 m -13.1,-6.6 -30.7,0 c 2.1,-7.099993 7.50001,-11 15.4,-11 8.19999,0 13.6,3.900007 15.3,11"
       style="font-size:100px;font-style:normal;font-variant:normal;font-weight:bold;font-stretch:normal;line-height:125%;letter-spacing:0px;word-spacing:0px;fill:#ffffff;fill-opacity:1;stroke:none;font-family:TeXGyreAdventor;-inkscape-font-specification:TeXGyreAdventor Bold"
       id="path3873"
       inkscape:connector-curvature="0" />
    <path
       d="m 457.49049,93.379837 0,-73.9 -13.3,0 0,23.4 c -3.9,-4.299996 -10.30001,-6.9 -17.3,-6.9 -15.49998,0 -27.7,13.000017 -27.7,29.6 0,16.399984 12.10002,29.1 27.8,29.1 7.49999,0 13,-2.500006 18.3,-8.5 l 0,7.2 12.2,0 m -12.3,-28 c 0,9.59999 -7.10001,17.1 -16.1,17.1 -9.29999,0 -16.5,-7.70001 -16.5,-17.5 0,-9.399991 7.10001,-16.8 16.2,-16.8 9.29999,0 16.4,7.50001 16.4,17.2"
       style="font-size:100px;font-style:normal;font-variant:normal;font-weight:bold;font-stretch:normal;line-height:125%;letter-spacing:0px;word-spacing:0px;fill:#ffffff;fill-opacity:1;stroke:none;font-family:TeXGyreAdventor;-inkscape-font-specification:TeXGyreAdventor Bold"
       id="path3875"
       inkscape:connector-curvature="0" />
    <path
       d="m 480.90611,93.379837 0,-55.4 -13.3,0 0,55.4 13.3,0 m 0.1,-63.4 0,-13.3 -13.3,0 0,13.3 13.3,0"
       style="font-size:100px;font-style:normal;font-variant:normal;font-weight:bold;font-stretch:normal;line-height:125%;letter-spacing:0px;word-spacing:0px;fill:#ffffff;fill-opacity:1;stroke:none;font-family:TeXGyreAdventor;-inkscape-font-specification:TeXGyreAdventor Bold"
       id="path3877"
       inkscape:connector-curvature="0" />
    <path
       d="m 547.72955,93.379837 0,-55.4 -12.2,0 0,7.4 c -4.59999,-6.099994 -10.10001,-8.7 -18.1,-8.7 -16.39998,0 -28.2,12.300017 -28.2,29.2 0,16.699983 11.70002,28.8 27.9,28.8 7.79999,0 13.10001,-2.500006 18.4,-8.5 l 0,7.2 12.2,0 m -12.6,-27.3 c 0,9.199991 -6.00001,16.4 -16.1,16.4 -9.69999,0 -16.4,-6.60001 -16.4,-16.3 0,-10.09999 6.70001,-17.3 16.2,-17.3 9.49999,0 16.3,7.10001 16.3,17.2"
       style="font-size:100px;font-style:normal;font-variant:normal;font-weight:bold;font-stretch:normal;line-height:125%;letter-spacing:0px;word-spacing:0px;fill:#ffffff;fill-opacity:1;stroke:none;font-family:TeXGyreAdventor;-inkscape-font-specification:TeXGyreAdventor Bold"
       id="path3879"
       inkscape:connector-curvature="0" />
  </g>
  <g
     id="g3934"
     transform="matrix(0.25349881,0,0,0.25358786,-0.84879057,1.7802284)">
    <path
       inkscape:connector-curvature="0"
       id="rect3851"
       d="m 229.78893,12.979837 0,5 -5,0 0,20 40,0 0,-20 -5,0 0,-5 -10,0 0,5 -10,0 0,-5 -10,0 z"
       style="fill:#ff0000;fill-opacity:1;fill-rule:nonzero;stroke:none" />
    <path
       inkscape:connector-curvature="0"
       id="path3909"
       d="m 250.78893,-7.020164 0,5 -5,0 0,20.000001 40,0 0,-20.000001 -5,0 0,-5 -10,0 0,5 -10,0 0,-5 -10,0 z"
       style="fill:#0000ff;fill-opacity:1;fill-rule:nonzero;stroke:none" />
  </g>
  <path
     style="fill:#00aa00;fill-opacity:1;fill-rule:nonzero;stroke:none"
     d="m 80.53723,5.2897714 -0.666429,1.07853 -1.078154,-0.666665 -2.665722,4.3141206 8.62521,5.333322 2.665725,-4.314122 -1.078151,-0.666665 0.666431,-1.0785296 -2.156303,-1.33333 -0.666431,1.07853 -2.156305,-1.33333 0.666434,-1.07853 -2.156305,-1.333331 z"
     id="path3911"
     inkscape:connector-curvature="0" />
  <g
     id="g3930"
     transform="matrix(0.25349881,0,0,0.25358786,-0.84879057,1.7802284)">
    <path
       inkscape:connector-curvature="0"
       id="path3913"
       d="m 112.39518,68.379836 0,5 -5,0 0,20.000001 40,0 0,-20.000001 -5,0 0,-5 -10,0 0,5 -10,0 0,-5 -10,0 z"
       style="fill:#ff0000;fill-opacity:1;fill-rule:nonzero;stroke:none" />
    <path
       inkscape:connector-curvature="0"
       id="path3915"
       d="m 75.89108,75.565021 4.192535,2.724456 -2.724456,4.192534 16.77014,10.897826 21.795641,-33.54028 -16.770141,-10.897819 -2.724453,4.192534 -4.192534,-2.724455 -5.44891,8.385068 4.192533,2.724455 -5.44891,8.385068 -4.192534,-2.724454 -5.448911,8.385067 z"
       style="fill:#ffb600;fill-opacity:1;fill-rule:nonzero;stroke:none" />
  </g>
</svg>
