<?xml version="1.0" encoding="utf-8"?>
<!-- Generator: Adobe Illustrator 16.0.4, SVG Export Plug-In . SVG Version: 6.00 Build 0)  -->
<!DOCTYPE svg PUBLIC "-//W3C//DTD SVG 1.1//EN" "http://www.w3.org/Graphics/SVG/1.1/DTD/svg11.dtd">
<svg version="1.1"
	 id="svg3061" xmlns:cc="http://creativecommons.org/ns#" xmlns:svg="http://www.w3.org/2000/svg" xmlns:rdf="http://www.w3.org/1999/02/22-rdf-syntax-ns#" xmlns:sodipodi="http://sodipodi.sourceforge.net/DTD/sodipodi-0.dtd" xmlns:dc="http://purl.org/dc/elements/1.1/" xmlns:inkscape="http://www.inkscape.org/namespaces/inkscape" sodipodi:docname="Brickipedia.png" inkscape:version="0.48.2 r9819"
	 xmlns="http://www.w3.org/2000/svg" xmlns:xlink="http://www.w3.org/1999/xlink" x="0px" y="0px" width="572.094px"
	 height="118.9px" viewBox="0 0 572.094 118.9" enable-background="new 0 0 572.094 118.9" xml:space="preserve">
<image xlink:href="brickimedia.svg" src="brickimedia.png" width="144" />
<g>
	<path fill="#FFFFFF" d="M31.4,101.251c-8.201,0-13.501-2.301-19.201-8.4v7.101H-0.001V26.046H13.3v23.602
		c5.1-5.101,10-7.101,17.201-7.101c15.901,0,27.901,12.602,27.901,29.303C58.401,88.55,47.001,101.251,31.4,101.251z M28.601,54.747
		c-9.3,0-16.101,7.101-16.101,17.102c0,10.101,6.801,17.2,16.401,17.2c9.5,0,16.101-7,16.101-17.102
		C45.001,62.048,38.101,54.747,28.601,54.747z"/>
	<path fill="#FFFFFF" d="M79.299,69.148V99.95H65.998V44.547h12.201v5.4c3.5-5.102,6.3-6.701,12-6.701h1v12.801
		C83.2,56.247,79.299,60.548,79.299,69.148z"/>
	<path fill="#FFFFFF" d="M97.997,99.95V44.547h13.301V99.95H97.997z M98.098,36.546V23.245h13.301v13.301H98.098z"/>
	<path fill="#FFFFFF" d="M149.198,101.251c-16.401,0-29.602-12.9-29.602-29.002c0-16.302,12.801-29.002,29.202-29.002
		c12.601,0,23.601,7.102,27.901,19.801h-15c-2.7-5.1-6.9-7.601-12.9-7.601c-9.201,0-15.801,7.001-15.801,16.701
		s6.9,16.9,16.101,16.9c5.5,0,9.301-2.199,12.601-7.301h15.001C172.099,94.149,162.099,101.251,149.198,101.251z"/>
	<path fill="#FFFFFF" d="M218.199,99.95l-18.901-25.901V99.95h-13.301V26.046h13.301v44.604l17.701-26.103h15.9l-19.801,27.103
		l23.001,28.301H218.199z"/>
	<path fill="#FFFFFF" d="M243.995,99.95V44.547h13.301V99.95H243.995z M244.095,36.546V23.245h13.301v13.301H244.095z"/>
	<path fill="#FFFFFF" d="M337.798,99.95V69.548c0-11.1-4.201-14.101-10.4-14.101c-7.401,0-11.201,4-11.201,17.201V99.95h-13.301
		V69.548c0-10.899-3.801-14.101-10.801-14.101c-7.701,0-10.8,4.101-10.8,17.201V99.95h-13.301V44.547h12.201v5.2
		c3.9-4.7,7.9-6.5,14.4-6.5c7.601,0,12.5,2.601,16.301,8.602c4.5-6,10-8.602,17.802-8.602c14.603,0,22.401,8.102,22.401,24.702
		V99.95H337.798z"/>
	<path fill="#FFFFFF" d="M416.896,78.149h-42.903c1.601,6.699,7.401,10.899,15.302,10.899c5.5,0,8.801-1.5,12.201-5.5h14.502
		c-3.701,11.4-15.201,17.701-26.402,17.701c-16.9,0-30.002-12.602-30.002-28.803c0-16.301,12.899-29.202,29.201-29.202
		c16.502,0,28.602,12.601,28.602,29.801C417.396,75.049,417.294,76.249,416.896,78.149z M388.995,55.447
		c-7.899,0-13.302,3.9-15.401,11.001h30.703C402.595,59.347,397.195,55.447,388.995,55.447z"/>
	<path fill="#FFFFFF" d="M469.695,99.95v-7.2c-5.301,6-10.801,8.501-18.301,8.501c-15.701,0-27.803-12.701-27.803-29.103
		c0-16.602,12.201-29.603,27.703-29.603c7,0,13.398,2.601,17.301,6.9v-23.4h13.301V99.95H469.695z M453.193,54.747
		c-9.1,0-16.199,7.4-16.199,16.8c0,9.802,7.199,17.502,16.502,17.502c9,0,16.1-7.501,16.1-17.102
		C469.595,62.248,462.496,54.747,453.193,54.747z"/>
	<path fill="#FFFFFF" d="M491.992,99.95V44.547h13.301V99.95H491.992z M492.091,36.546V23.245h13.301v13.301H492.091z"/>
	<path fill="#FFFFFF" d="M559.892,99.95v-7.2c-5.299,6-10.6,8.501-18.398,8.501c-16.201,0-27.902-12.102-27.902-28.803
		c0-16.901,11.801-29.202,28.201-29.202c8,0,13.502,2.6,18.102,8.701v-7.4h12.201V99.95H559.892z M543.191,55.447
		c-9.5,0-16.199,7.2-16.199,17.302c0,9.7,6.699,16.301,16.4,16.301c10.102,0,16.102-7.2,16.102-16.4
		C559.494,62.548,552.693,55.447,543.191,55.447z"/>
</g>
<sodipodi:namedview  objecttolerance="10" pagecolor="#ffffff" gridtolerance="10" fit-margin-left="0" inkscape:zoom="1.0902394" bordercolor="#666666" showgrid="false" guidetolerance="10" inkscape:cx="272.51054" fit-margin-top="0" borderopacity="1" inkscape:cy="57.412688" id="namedview3063" inkscape:window-maximized="1" inkscape:pageopacity="0" fit-margin-right="0" inkscape:snap-nodes="false" inkscape:snap-global="true" inkscape:snap-grids="true" inkscape:snap-bbox="true" inkscape:window-height="744" inkscape:window-width="1360" inkscape:pageshadow="2" inkscape:object-nodes="true" inkscape:window-y="24" inkscape:window-x="0" fit-margin-bottom="0" inkscape:current-layer="svg3061">
	
		<inkscape:grid  type="xygrid" empspacing="5" visible="true" dotted="true" enabled="true" id="grid3849" snapvisiblegridlinesonly="true">
		</inkscape:grid>
</sodipodi:namedview>
<g id="g3934" transform="translate(-3.348302,7.020164)">
	<path id="rect3851" inkscape:connector-curvature="0" fill="#FF0000" d="M226.387,13.98v5h-5v20h40v-20h-5v-5h-10v5h-10v-5H226.387
		L226.387,13.98z"/>
	<path id="path3909" inkscape:connector-curvature="0" fill="#0000FF" d="M247.387-6.02v5h-5v20h40v-20h-5v-5h-10v5h-10v-5H247.387
		L247.387-6.02z"/>
</g>
<g id="g3930" transform="translate(-3.348302,7.020164)">
	<path id="path3913" inkscape:connector-curvature="0" fill="#FF0000" d="M107.994,68.38v5h-5v20h40v-20h-5v-5h-10v5h-10v-5H107.994
		z"/>
	<path id="path3915" inkscape:connector-curvature="0" fill="#FFB600" d="M71.489,75.565l4.192,2.728l-2.725,4.189L89.729,93.38
		l21.795-33.54l-16.77-10.898l-2.725,4.192l-4.192-2.725l-5.449,8.386l4.193,2.725l-5.449,8.388l-4.193-2.728L71.489,75.565z"/>
</g>
<path id="path3911" inkscape:connector-curvature="0" fill="#00AA00" d="M346.3,20.86l-2.629,4.253l-4.254-2.629L328.9,39.496
	l34.025,21.032l10.516-17.013l-4.254-2.632l2.629-4.253l-8.506-5.258l-2.629,4.253l-8.506-5.258l2.629-4.253L346.3,20.86z"/>
</svg>
