<?xml version="1.0" encoding="utf-8"?>
<!-- Generator: Adobe Illustrator 16.0.4, SVG Export Plug-In . SVG Version: 6.00 Build 0)  -->
<!DOCTYPE svg PUBLIC "-//W3C//DTD SVG 1.1//EN" "http://www.w3.org/Graphics/SVG/1.1/DTD/svg11.dtd">
<svg version="1.1" id="Layer_1" xmlns="http://www.w3.org/2000/svg" xmlns:xlink="http://www.w3.org/1999/xlink" x="0px" y="0px"
	 width="144px" height="36px" viewBox="0 0 144 36" enable-background="new 0 0 144 36" xml:space="preserve">
<g id="AVo5lM_2_">
<image xlink:href="cuusoo.svg" src="cuusoo.png" width="144" />
	<g>
		<path fill-rule="evenodd" clip-rule="evenodd" fill="#FFFFFF" d="M63.02,1.339c1.738-0.004,3.222,0.196,4.57,0.979
			c0.843,0.488,1.138,1.162,0.628,2.065c-0.304,0.541-0.607,0.817-1.279,0.349c-1.512-1.051-3.26-1.123-5.015-0.909
			c-0.806,0.097-1.525,0.438-1.582,1.415c-0.054,0.931,0.595,1.286,1.347,1.466c1.375,0.329,2.777,0.554,4.142,0.922
			c2.398,0.647,3.384,1.848,3.317,3.89c-0.061,1.897-1.332,3.323-3.527,3.811c-2.592,0.577-5.087,0.198-7.477-0.938
			c-0.538-0.255-1.06-0.543-0.479-1.193c0.417-0.465,0.307-1.729,1.571-1.017c1.558,0.876,3.273,1.125,5.046,0.956
			c0.965-0.092,1.892-0.391,2.011-1.497c0.13-1.192-0.839-1.512-1.763-1.715c-1.602-0.351-3.268-0.449-4.777-1.165
			c-1.965-0.933-2.73-2.995-1.82-4.956c0.515-1.108,1.469-1.732,2.589-2.104C61.398,1.407,62.304,1.282,63.02,1.339z"/>
		<path fill-rule="evenodd" clip-rule="evenodd" fill="#FFFFFF" d="M41.172,6.621c0.001,0.869,0.005,1.738,0,2.606
			c-0.017,4.555-2.711,6.892-7.261,6.299c-3.222-0.419-4.893-2.277-5.096-5.911c-0.12-2.143-0.021-4.298-0.026-6.448
			c-0.002-0.948,0.476-1.474,1.404-1.496c0.946-0.024,1.333,0.437,1.304,1.446c-0.063,2.147-0.033,4.3,0.022,6.448
			c0.06,2.299,1.101,3.435,3.144,3.557c2.32,0.137,3.597-0.777,3.81-3.127c0.206-2.271,0.119-4.569,0.112-6.854
			c-0.002-1.083,0.565-1.491,1.533-1.466c0.666,0.017,1.097,0.304,1.067,1.103C41.137,4.058,41.171,5.339,41.172,6.621z"/>
		<path fill-rule="evenodd" clip-rule="evenodd" fill="#FFFFFF" d="M14.974,7.593c0.031-5.666,6.418-7.403,10.589-5.628
			c0.705,0.299,1.236,0.786,1.29,1.625c0.039,0.612-0.29,1.039-0.742,1.389c-0.494,0.383-0.732-0.129-1.043-0.331
			c-1.872-1.212-4.26-1.16-5.753,0.139c-1.545,1.345-2.044,3.804-1.176,5.8c0.76,1.747,2.844,2.79,5.05,2.493
			c0.493-0.065,1.041-0.135,1.443-0.39c1.147-0.724,1.588-0.023,2.069,0.84c0.281,0.503,0.292,0.82-0.265,1.085
			c-2.68,1.274-5.399,1.418-8.042,0.024C15.933,13.338,14.917,11.124,14.974,7.593z"/>
		<path fill-rule="evenodd" clip-rule="evenodd" fill="#FFFFFF" d="M79.358,14.529c-0.058,0.847-0.557,1.293-1.315,1.271
			c-0.752-0.021-1.268-0.477-1.246-1.306c0.021-0.874,0.509-1.346,1.375-1.3C78.987,13.237,79.346,13.764,79.358,14.529z"/>
		<path fill-rule="evenodd" clip-rule="evenodd" fill="#FFFFFF" d="M81.109,4.692C80.408,4.64,79.9,4.252,79.893,3.44
			c-0.008-0.884,0.526-1.31,1.381-1.296c0.831,0.012,1.26,0.554,1.236,1.309C82.486,4.209,82.026,4.693,81.109,4.692z"/>
		<path fill-rule="evenodd" clip-rule="evenodd" fill="#FFFFFF" d="M72.422,6.602c-0.812-0.064-1.288-0.531-1.271-1.305
			c0.018-0.761,0.479-1.266,1.304-1.254c0.87,0.013,1.368,0.48,1.321,1.357C73.732,6.205,73.21,6.582,72.422,6.602z"/>
		<path fill-rule="evenodd" clip-rule="evenodd" fill="#FFFFFF" d="M82.562,13.537c-0.192,0.751-0.606,1.272-1.407,1.229
			c-0.772-0.042-1.276-0.504-1.257-1.315c0.019-0.791,0.51-1.302,1.278-1.302C82.021,12.15,82.445,12.734,82.562,13.537z"/>
		<path fill-rule="evenodd" clip-rule="evenodd" fill="#FFFFFF" d="M79.354,2.366c-0.022,0.916-0.536,1.355-1.306,1.343
			c-0.773-0.013-1.269-0.487-1.255-1.326c0.014-0.849,0.546-1.263,1.312-1.273C78.928,1.097,79.32,1.627,79.354,2.366z"/>
		<path fill-rule="evenodd" clip-rule="evenodd" fill="#FFFFFF" d="M100.634,8.449c-0.142,0.843-0.62,1.355-1.377,1.319
			c-0.818-0.039-1.318-0.592-1.253-1.462c0.063-0.828,0.636-1.203,1.393-1.165C100.201,7.182,100.533,7.77,100.634,8.449z"/>
		<path fill-rule="evenodd" clip-rule="evenodd" fill="#FFFFFF" d="M72.946,8.397c-0.208,0.884-0.662,1.461-1.511,1.364
			c-0.745-0.085-1.223-0.622-1.152-1.425c0.068-0.8,0.599-1.229,1.375-1.199C72.465,7.169,72.797,7.756,72.946,8.397z"/>
		<path fill-rule="evenodd" clip-rule="evenodd" fill="#FFFFFF" d="M74.896,12.544c0.88,0.036,1.316,0.551,1.297,1.317
			c-0.021,0.791-0.559,1.233-1.367,1.218c-0.837-0.017-1.258-0.538-1.247-1.323C73.592,12.93,74.13,12.561,74.896,12.544z"/>
		<path fill-rule="evenodd" clip-rule="evenodd" fill="#FFFFFF" d="M91.027,13.433c-0.139,0.711-0.458,1.315-1.291,1.33
			c-0.799,0.016-1.311-0.433-1.346-1.247c-0.032-0.815,0.471-1.327,1.239-1.363C90.415,12.113,90.864,12.645,91.027,13.433z"/>
		<path fill-rule="evenodd" clip-rule="evenodd" fill="#FFFFFF" d="M84.727,5.89c-0.132,0.796-0.568,1.246-1.387,1.23
			c-0.848-0.019-1.253-0.548-1.24-1.327c0.014-0.82,0.537-1.225,1.345-1.215C84.298,4.589,84.626,5.137,84.727,5.89z"/>
		<path fill-rule="evenodd" clip-rule="evenodd" fill="#FFFFFF" d="M94.131,14.416c-0.038,0.844-0.522,1.326-1.266,1.374
			c-0.85,0.054-1.391-0.516-1.39-1.334c0.001-0.758,0.528-1.261,1.317-1.264C93.579,13.188,94.017,13.671,94.131,14.416z"/>
		<path fill-rule="evenodd" clip-rule="evenodd" fill="#FFFFFF" d="M92.768,1.06c0.844,0.135,1.354,0.547,1.342,1.349
			c-0.014,0.885-0.623,1.335-1.427,1.286c-0.755-0.047-1.267-0.612-1.213-1.383C91.524,1.556,92.068,1.138,92.768,1.06z"/>
		<path fill-rule="evenodd" clip-rule="evenodd" fill="#FFFFFF" d="M97.38,3.045c-0.146,0.749-0.498,1.291-1.331,1.312
			c-0.819,0.021-1.311-0.396-1.336-1.222c-0.026-0.825,0.429-1.261,1.253-1.307C96.827,1.782,97.179,2.317,97.38,3.045z"/>
		<path fill-rule="evenodd" clip-rule="evenodd" fill="#FFFFFF" d="M73.793,11.655c-0.131,0.755-0.559,1.254-1.377,1.208
			c-0.794-0.044-1.296-0.553-1.256-1.341c0.039-0.776,0.57-1.303,1.361-1.25C73.271,10.323,73.775,10.795,73.793,11.655z"/>
		<path fill-rule="evenodd" clip-rule="evenodd" fill="#FFFFFF" d="M91.023,3.504c-0.165,0.758-0.574,1.241-1.407,1.179
			c-0.806-0.06-1.269-0.51-1.228-1.333c0.039-0.822,0.539-1.234,1.35-1.201C90.576,2.184,90.892,2.761,91.023,3.504z"/>
		<path fill-rule="evenodd" clip-rule="evenodd" fill="#FFFFFF" d="M87.625,7.136c-0.889-0.035-1.398-0.423-1.431-1.238
			c-0.032-0.816,0.433-1.272,1.244-1.317c0.826-0.045,1.342,0.407,1.355,1.195C88.809,6.536,88.342,7.031,87.625,7.136z"/>
		<path fill-rule="evenodd" clip-rule="evenodd" fill="#FFFFFF" d="M84.226,8.018c0.072-0.481,0.513-0.964,1.329-0.866
			c0.771,0.092,1.268,0.582,1.168,1.405c-0.095,0.771-0.602,1.281-1.393,1.204C84.558,9.684,84.124,9.167,84.226,8.018z"/>
		<path fill-rule="evenodd" clip-rule="evenodd" fill="#FFFFFF" d="M76.228,3.052c-0.12,0.715-0.463,1.255-1.288,1.307
			c-0.839,0.052-1.298-0.419-1.357-1.203c-0.063-0.823,0.413-1.268,1.225-1.322C75.644,1.777,76.052,2.256,76.228,3.052z"/>
		<path fill-rule="evenodd" clip-rule="evenodd" fill="#FFFFFF" d="M84.728,11.134c-0.179,0.738-0.604,1.229-1.414,1.194
			c-0.831-0.033-1.239-0.572-1.219-1.351c0.023-0.828,0.562-1.201,1.366-1.185C84.32,9.809,84.631,10.361,84.728,11.134z"/>
		<path fill-rule="evenodd" clip-rule="evenodd" fill="#FFFFFF" d="M88.851,11.088c-0.173,0.75-0.584,1.25-1.396,1.24
			c-0.839-0.009-1.255-0.54-1.255-1.316c0.002-0.824,0.529-1.211,1.336-1.213C88.395,9.794,88.716,10.342,88.851,11.088z"/>
		<path fill-rule="evenodd" clip-rule="evenodd" fill="#FFFFFF" d="M95.859,12.552c1.018-0.003,1.487,0.491,1.454,1.264
			c-0.031,0.743-0.496,1.284-1.335,1.264c-0.813-0.018-1.274-0.465-1.266-1.289C94.723,12.954,95.224,12.578,95.859,12.552z"/>
		<path fill-rule="evenodd" clip-rule="evenodd" fill="#FFFFFF" d="M98.589,10.284c0.699,0.156,1.133,0.605,1.074,1.409
			c-0.061,0.817-0.555,1.229-1.358,1.167c-0.814-0.062-1.216-0.577-1.166-1.373C97.19,10.66,97.754,10.341,98.589,10.284z"/>
		<path fill-rule="evenodd" clip-rule="evenodd" fill="#FFFFFF" d="M99.693,5.26c-0.09,0.893-0.516,1.344-1.328,1.318
			c-0.812-0.024-1.249-0.509-1.23-1.304c0.019-0.81,0.51-1.234,1.311-1.224C99.276,4.06,99.625,4.578,99.693,5.26z"/>
		<path fill-rule="evenodd" clip-rule="evenodd" fill="#FFFFFF" d="M28.815,9.616c-0.12-2.143-0.021-4.298-0.026-6.448"/>
		<path fill-rule="evenodd" clip-rule="evenodd" fill="#FFFFFF" d="M55.735,6.621c0.001,0.869,0.004,1.738,0,2.606
			c-0.017,4.555-2.71,6.892-7.261,6.299c-3.222-0.419-4.891-2.277-5.096-5.911c-0.12-2.143-0.021-4.298-0.026-6.448
			c-0.002-0.948,0.476-1.474,1.405-1.496c0.945-0.024,1.332,0.437,1.303,1.446c-0.063,2.147-0.033,4.3,0.022,6.448
			c0.06,2.299,1.101,3.435,3.143,3.557c2.32,0.137,3.597-0.777,3.81-3.127c0.207-2.271,0.119-4.569,0.112-6.854
			c-0.002-1.083,0.566-1.491,1.533-1.466c0.666,0.017,1.097,0.304,1.067,1.103C55.7,4.058,55.735,5.339,55.735,6.621z"/>
	</g>
</g>
<g>
	<path fill="#FFFFFF" d="M16.642,34.075l1.582-7.511c0.213-1.01,0.422-1.757,0.625-2.239c0.203-0.483,0.533-0.889,0.99-1.217
		c0.457-0.328,0.999-0.492,1.627-0.492c0.644-0.008,1.169,0.179,1.576,0.562c0.407,0.383,0.61,0.875,0.61,1.479
		c0,0.551-0.169,1.012-0.507,1.382c-0.338,0.371-0.751,0.618-1.238,0.743c0.499,0.209,0.873,0.514,1.123,0.914
		c0.25,0.401,0.374,0.818,0.374,1.253c0,0.692-0.246,1.335-0.736,1.927c-0.491,0.591-1.188,0.887-2.089,0.887
		c-0.52,0-0.939-0.093-1.259-0.28c-0.32-0.188-0.606-0.46-0.86-0.818l-0.749,3.411H16.642z M20.319,26.438
		c0.769-0.016,1.348-0.19,1.739-0.524c0.39-0.334,0.585-0.753,0.585-1.256c0-0.33-0.113-0.604-0.338-0.821
		c-0.226-0.218-0.493-0.326-0.803-0.326c-0.467,0-0.883,0.207-1.25,0.622c-0.366,0.414-0.638,1.055-0.815,1.92l-0.417,1.986
		c-0.104,0.511-0.157,0.93-0.157,1.256c0,0.539,0.173,0.962,0.519,1.268s0.729,0.459,1.147,0.459c0.511,0,0.945-0.207,1.301-0.622
		c0.356-0.414,0.535-0.911,0.535-1.491c0-1.159-0.735-1.738-2.204-1.738L20.319,26.438z"/>
	<path fill="#FFFFFF" d="M29.309,31.618l-1.051-6.412h1.062l0.55,3.532c0.06,0.387,0.135,1.017,0.223,1.89
		c0.209-0.455,0.477-0.976,0.803-1.563l2.143-3.858h1.153l-3.671,6.412H29.309z"/>
	<path fill="#FFFFFF" d="M39.72,29.438l1.063,0.108c-0.153,0.527-0.504,1.029-1.054,1.504s-1.205,0.712-1.965,0.712
		c-0.475,0-0.911-0.109-1.307-0.329c-0.396-0.219-0.698-0.538-0.906-0.956c-0.207-0.419-0.311-0.896-0.311-1.432
		c0-0.7,0.162-1.379,0.486-2.037s0.744-1.147,1.259-1.468c0.515-0.319,1.073-0.479,1.672-0.479c0.765,0,1.375,0.237,1.833,0.712
		c0.457,0.476,0.685,1.123,0.685,1.944c0,0.314-0.028,0.636-0.084,0.966h-4.721c-0.016,0.125-0.024,0.238-0.024,0.339
		c0,0.6,0.138,1.058,0.414,1.373c0.276,0.316,0.613,0.474,1.012,0.474c0.374,0,0.742-0.122,1.104-0.368
		C39.237,30.256,39.519,29.901,39.72,29.438z M36.544,27.851h3.598c0.004-0.112,0.006-0.193,0.006-0.241
		c0-0.548-0.137-0.967-0.41-1.259c-0.274-0.292-0.626-0.438-1.057-0.438c-0.467,0-0.893,0.16-1.277,0.482
		C37.02,26.718,36.733,27.203,36.544,27.851z"/>
	<path fill="#FFFFFF" d="M43.025,31.618l1.34-6.412h0.966l-0.271,1.311c0.33-0.495,0.653-0.861,0.969-1.099
		c0.316-0.238,0.639-0.356,0.969-0.356c0.217,0,0.485,0.078,0.803,0.235l-0.447,1.015c-0.189-0.137-0.396-0.206-0.622-0.206
		c-0.382,0-0.775,0.214-1.177,0.641c-0.403,0.427-0.719,1.193-0.948,2.3l-0.543,2.572H43.025z"/>
	<path fill="#FFFFFF" d="M48.383,29.427l1.093-0.066c0,0.313,0.048,0.581,0.145,0.803s0.274,0.402,0.534,0.543
		c0.26,0.142,0.562,0.212,0.909,0.212c0.483,0,0.845-0.097,1.087-0.29c0.241-0.193,0.362-0.421,0.362-0.683
		c0-0.188-0.073-0.368-0.218-0.537c-0.149-0.169-0.512-0.377-1.089-0.625c-0.578-0.247-0.947-0.421-1.108-0.521
		c-0.27-0.165-0.473-0.359-0.61-0.583c-0.137-0.224-0.206-0.48-0.206-0.77c0-0.508,0.201-0.942,0.604-1.305
		c0.402-0.362,0.966-0.543,1.69-0.543c0.805,0,1.418,0.187,1.838,0.559s0.639,0.862,0.655,1.47l-1.069,0.072
		c-0.016-0.386-0.153-0.692-0.411-0.917c-0.257-0.226-0.622-0.339-1.093-0.339c-0.378,0-0.672,0.087-0.881,0.26
		s-0.314,0.36-0.314,0.562s0.091,0.379,0.271,0.531c0.121,0.104,0.433,0.266,0.936,0.483c0.837,0.362,1.365,0.648,1.582,0.857
		c0.346,0.334,0.519,0.74,0.519,1.22c0,0.317-0.098,0.63-0.293,0.936s-0.493,0.551-0.894,0.733c-0.4,0.184-0.872,0.274-1.416,0.274
		c-0.741,0-1.371-0.183-1.89-0.549C48.6,30.848,48.354,30.252,48.383,29.427z"/>
	<path fill="#FFFFFF" d="M55.558,31.618l1.34-6.412h1.093l-1.34,6.412H55.558z M57.152,24.005l0.259-1.237h1.087l-0.26,1.237H57.152
		z"/>
	<path fill="#FFFFFF" d="M59.678,29.185c0-1.251,0.369-2.288,1.105-3.109c0.608-0.676,1.405-1.014,2.391-1.014
		c0.773,0,1.396,0.241,1.869,0.725c0.473,0.482,0.709,1.135,0.709,1.956c0,0.736-0.149,1.422-0.447,2.056
		c-0.298,0.634-0.722,1.12-1.271,1.458s-1.128,0.507-1.736,0.507c-0.499,0-0.953-0.106-1.361-0.319
		c-0.409-0.214-0.721-0.516-0.936-0.906C59.786,30.147,59.678,29.696,59.678,29.185z M60.771,29.076
		c0,0.604,0.145,1.062,0.435,1.374c0.29,0.312,0.658,0.468,1.105,0.468c0.233,0,0.465-0.048,0.694-0.142
		c0.229-0.095,0.442-0.239,0.64-0.433c0.197-0.192,0.365-0.413,0.504-0.66c0.139-0.248,0.25-0.515,0.335-0.801
		c0.125-0.398,0.187-0.78,0.187-1.146c0-0.58-0.146-1.029-0.438-1.35c-0.292-0.32-0.659-0.48-1.102-0.48
		c-0.342,0-0.654,0.082-0.936,0.245s-0.537,0.401-0.764,0.715c-0.228,0.314-0.395,0.68-0.501,1.097
		C60.824,28.379,60.771,28.75,60.771,29.076z"/>
	<path fill="#FFFFFF" d="M67.5,31.618l1.34-6.412h0.99l-0.236,1.117c0.431-0.438,0.833-0.759,1.208-0.96
		c0.375-0.201,0.757-0.302,1.147-0.302c0.52,0,0.927,0.141,1.223,0.423c0.296,0.281,0.443,0.658,0.443,1.129
		c0,0.237-0.052,0.611-0.156,1.123l-0.815,3.882h-1.093l0.852-4.063c0.084-0.395,0.126-0.686,0.126-0.875
		c0-0.214-0.073-0.387-0.22-0.52c-0.147-0.133-0.359-0.199-0.637-0.199c-0.56,0-1.058,0.201-1.494,0.604
		c-0.437,0.402-0.758,1.093-0.963,2.071l-0.622,2.982H67.5z"/>
</g>
<g>
	<path fill="#FFFFFF" d="M82.938,34l-4.689-13.229h2.684l2.438,7.637l0.908,2.841c0.039-0.142,0.304-1.052,0.794-2.729l2.439-7.749
		h2.669l2.293,7.674l0.766,2.529l0.879-2.554l2.626-7.649h2.525L94.48,34h-2.698l-2.438-7.923l-0.592-2.255L85.65,34H82.938z"/>
	<path fill="#FFFFFF" d="M101.463,34V20.771h2.597V34H101.463z M101.463,16.976c0-0.716,0.581-1.297,1.298-1.297
		c0.718,0,1.299,0.581,1.299,1.297c0,0.718-0.581,1.299-1.299,1.299C102.044,18.275,101.463,17.694,101.463,16.976z"/>
	<path fill="#FFFFFF" d="M108.027,34V15.738h2.597v10.415l6.147-5.382h3.36l-5.858,4.909l6.45,8.32h-3.204l-5.062-6.764l-1.833,1.52
		V34H108.027z"/>
	<path fill="#FFFFFF" d="M122.8,34V20.771h2.598V34H122.8z M122.8,16.976c0-0.716,0.582-1.297,1.3-1.297s1.298,0.581,1.298,1.297
		c0,0.718-0.58,1.299-1.298,1.299S122.8,17.694,122.8,16.976z"/>
</g>
</svg>
