<?xml version="1.0" encoding="utf-8"?>
<!-- Generator: Adobe Illustrator 16.0.4, SVG Export Plug-In . SVG Version: 6.00 Build 0)  -->
<!DOCTYPE svg PUBLIC "-//W3C//DTD SVG 1.1//EN" "http://www.w3.org/Graphics/SVG/1.1/DTD/svg11.dtd">
<svg version="1.1"
	 id="svg3061" xmlns:cc="http://creativecommons.org/ns#" xmlns:svg="http://www.w3.org/2000/svg" xmlns:rdf="http://www.w3.org/1999/02/22-rdf-syntax-ns#" xmlns:sodipodi="http://sodipodi.sourceforge.net/DTD/sodipodi-0.dtd" xmlns:dc="http://purl.org/dc/elements/1.1/" xmlns:inkscape="http://www.inkscape.org/namespaces/inkscape" sodipodi:docname="Brickipedia.png" inkscape:version="0.48.2 r9819"
	 xmlns="http://www.w3.org/2000/svg" xmlns:xlink="http://www.w3.org/1999/xlink" x="0px" y="0px" width="394.998px"
	 height="118.9px" viewBox="0 0 394.998 118.9" enable-background="new 0 0 394.998 118.9" xml:space="preserve">
<image xlink:href="customs.svg" src="customs.png" width="100" />
<sodipodi:namedview  objecttolerance="10" pagecolor="#ffffff" gridtolerance="10" fit-margin-left="0" inkscape:zoom="1.0902394" bordercolor="#666666" showgrid="false" guidetolerance="10" inkscape:cx="272.51054" fit-margin-top="0" borderopacity="1" inkscape:cy="57.412688" id="namedview3063" inkscape:window-maximized="1" inkscape:pageopacity="0" fit-margin-right="0" inkscape:snap-nodes="false" inkscape:snap-global="true" inkscape:snap-grids="true" inkscape:snap-bbox="true" inkscape:window-height="744" inkscape:window-width="1360" inkscape:pageshadow="2" inkscape:object-nodes="true" inkscape:window-y="24" inkscape:window-x="0" fit-margin-bottom="0" inkscape:current-layer="svg3061">
	
		<inkscape:grid  type="xygrid" empspacing="5" visible="true" dotted="true" enabled="true" id="grid3849" snapvisiblegridlinesonly="true">
		</inkscape:grid>
</sodipodi:namedview>
<path fill="#FFFFFF" d="M29.604,102.251c-16.4,0-29.603-12.9-29.603-29.002c0-16.302,12.801-29.002,29.202-29.002
	c12.602,0,23.603,7.102,27.901,19.801H42.104c-2.7-5.1-6.9-7.601-12.9-7.601c-9.201,0-15.801,7.001-15.801,16.701
	s6.899,16.9,16.101,16.9c5.5,0,9.302-2.199,12.602-7.301h15.001C52.505,95.149,42.505,102.251,29.604,102.251z"/>
<path fill="#FFFFFF" d="M103.404,100.95v-5.301c-5,4.899-9.2,6.602-15.9,6.602c-12.9,0-21.102-7.501-21.102-27.002V45.547h13.301
	v27.103c0,14.701,4.102,17.4,10.501,17.4c4.5,0,8.102-1.899,10.102-5.101c1.5-2.5,2.1-5.9,2.1-13.301V45.547h13.301v55.403H103.404z
	"/>
<path fill="#FFFFFF" d="M143.202,102.251c-11.001,0-18.9-6.001-20.301-18.901h13.4c1.3,4.7,3.5,6.7,7.399,6.7
	c3.4,0,6.001-2.301,6.001-5.399c0-3.2-0.5-4.102-9.4-7.102c-11-3.699-15.4-8.301-15.4-16.4c0-9.5,8.101-16.901,18.4-16.901
	c9.4,0,17.701,6.201,18.201,16.602h-13.001c-0.601-2.9-2.399-4.4-5.2-4.4c-2.899,0-5.101,2-5.101,4.7c0,2.899,0.3,3.101,9.4,6
	c11.601,3.602,15.4,8.001,15.4,16.201C163.004,93.95,154.302,102.251,143.202,102.251z"/>
<path fill="#FFFFFF" d="M186.7,57.647v43.303h-13.301V57.647h-6.5V45.547h6.5V27.046H186.7v18.501h8.001v12.102L186.7,57.647
	L186.7,57.647z"/>
<path fill="#FFFFFF" d="M227.4,102.251c-16.201,0-29.402-13.002-29.402-29.002c0-15.9,13.201-29.002,29.302-29.002
	c16.701,0,29.603,12.901,29.603,29.402C256.901,89.249,243.501,102.251,227.4,102.251z M227.4,56.447
	c-8.701,0-16.001,7.501-16.001,16.601c0,9.501,7.1,17.002,16.101,17.002c8.802,0,16.001-7.501,16.001-16.801
	C243.501,64.048,236.3,56.447,227.4,56.447z"/>
<path fill="#FFFFFF" d="M334.203,100.95V70.548c0-11.1-4.201-14.101-10.401-14.101c-7.399,0-11.199,4.001-11.199,17.201v27.302
	h-13.301V70.548c0-10.899-3.802-14.101-10.802-14.101c-7.7,0-10.801,4.101-10.801,17.201v27.302h-13.301V45.547h12.2v5.2
	c3.899-4.7,7.9-6.5,14.4-6.5c7.602,0,12.501,2.601,16.301,8.602c4.5-6,10.002-8.602,17.803-8.602c14.601,0,22.4,8.102,22.4,24.702
	v32.002L334.203,100.95L334.203,100.95z"/>
<path fill="#FFFFFF" d="M375.198,102.251c-11.001,0-18.9-6.001-20.301-18.901h13.4c1.3,4.7,3.5,6.7,7.399,6.7
	c3.4,0,6.001-2.301,6.001-5.399c0-3.2-0.5-4.102-9.4-7.102c-11-3.699-15.4-8.301-15.4-16.4c0-9.5,8.101-16.901,18.4-16.901
	c9.4,0,17.701,6.201,18.201,16.602h-13.001c-0.601-2.9-2.399-4.4-5.2-4.4c-2.899,0-5.101,2-5.101,4.7c0,2.899,0.3,3.101,9.4,6
	c11.601,3.602,15.4,8.001,15.4,16.201C395,93.95,386.3,102.251,375.198,102.251z"/>
<path id="rect3851_2_" inkscape:connector-curvature="0" fill="#FF0000" d="M138.214,20v5h-5v20h40V25h-5v-5h-10v5h-10v-5H138.214
	L138.214,20z"/>
<path id="path3909_2_" inkscape:connector-curvature="0" fill="#0000FF" d="M339.209,19.533l-2.698,4.209l-4.209-2.698
	l-10.791,16.839l33.678,21.583l10.792-16.841l-4.21-2.696l2.697-4.211l-8.42-5.395l-2.697,4.21l-8.419-5.396l2.696-4.209
	L339.209,19.533L339.209,19.533z"/>
<path id="rect3851_3_" inkscape:connector-curvature="0" fill="#FFB600" d="M192.214,76.95v5h-5v20h40v-20h-5v-5h-10v5h-10v-5
	H192.214L192.214,76.95z"/>
<path id="rect3851_4_" inkscape:connector-curvature="0" fill="#00AA00" d="M45.966,76.731v5h-5v20h40v-20h-5v-5h-10v5h-10v-5
	H45.966L45.966,76.731z"/>
<sodipodi:namedview  objecttolerance="10" pagecolor="#ffffff" gridtolerance="10" fit-margin-left="0" inkscape:zoom="1.0902394" bordercolor="#666666" showgrid="false" guidetolerance="10" inkscape:cx="272.51054" fit-margin-top="0" borderopacity="1" inkscape:cy="57.412688" id="namedview3063" inkscape:window-maximized="1" inkscape:pageopacity="0" fit-margin-right="0" inkscape:snap-nodes="false" inkscape:snap-global="true" inkscape:snap-grids="true" inkscape:snap-bbox="true" inkscape:window-height="744" inkscape:window-width="1360" inkscape:pageshadow="2" inkscape:object-nodes="true" inkscape:window-y="24" inkscape:window-x="0" fit-margin-bottom="0" inkscape:current-layer="svg3061">
	
		<inkscape:grid  type="xygrid" empspacing="5" visible="true" dotted="true" enabled="true" id="grid3849" snapvisiblegridlinesonly="true">
		</inkscape:grid>
</sodipodi:namedview>
</svg>
