<?xml version="1.0" encoding="utf-8"?>
<!-- Generator: Adobe Illustrator 16.0.0, SVG Export Plug-In . SVG Version: 6.00 Build 0)  -->
<!DOCTYPE svg PUBLIC "-//W3C//DTD SVG 1.1//EN" "http://www.w3.org/Graphics/SVG/1.1/DTD/svg11.dtd">
<svg version="1.1" id="Layer_1" xmlns="http://www.w3.org/2000/svg" xmlns:xlink="http://www.w3.org/1999/xlink" x="0px" y="0px"
	 width="1736.443px" height="500px" viewBox="0 0 1736.443 500" enable-background="new 0 0 1736.443 500" xml:space="preserve">
<defs>
	<filter id="Adobe_OpacityMaskFilter" filterUnits="userSpaceOnUse" x="130.67" y="58.044" width="1406.031" height="384.112">
		<feColorMatrix  type="matrix" values="1 0 0 0 0  0 1 0 0 0  0 0 1 0 0  0 0 0 1 0"/>
	</filter>
</defs>
<mask maskUnits="userSpaceOnUse" x="130.67" y="58.044" width="1406.031" height="384.112" id="SVGID_1_">
	<g filter="url(#Adobe_OpacityMaskFilter)">
		<linearGradient id="SVGID_2_" gradientUnits="userSpaceOnUse" x1="1536.7012" y1="250.0996" x2="130.6704" y2="250.0997">
			<stop  offset="0" style="stop-color:#FFFFFF"/>
			<stop  offset="1" style="stop-color:#000000"/>
		</linearGradient>
		<rect x="130.67" y="58.044" fill="url(#SVGID_2_)" width="1406.031" height="384.112"/>
	</g>
</mask>
<rect x="130.67" y="58.044" mask="url(#SVGID_1_)" fill="#FFFFFF" width="1406.031" height="384.112"/>
<g>
	<path id="path2916" fill="#FFFFFF" d="M1733.559,250.102c0,106.068-88.138,192.054-196.857,192.054
		c-108.723,0-196.857-85.986-196.857-192.054c0-106.07,88.135-192.058,196.857-192.058
		C1645.421,58.044,1733.559,144.032,1733.559,250.102z"/>
	<defs>
		<filter id="Adobe_OpacityMaskFilter_1_" filterUnits="userSpaceOnUse" x="1330.645" y="54.901" width="398.558" height="398.785">
			<feColorMatrix  type="matrix" values="1 0 0 0 0  0 1 0 0 0  0 0 1 0 0  0 0 0 1 0"/>
		</filter>
	</defs>
	<mask maskUnits="userSpaceOnUse" x="1330.645" y="54.901" width="398.558" height="398.785" id="mask2920_1_">
		<path id="path2918_1_" fill="#FFFFFF" filter="url(#Adobe_OpacityMaskFilter_1_)" d="M1733.559,250.102
			c0,106.068-88.138,192.054-196.857,192.054c-108.723,0-196.857-85.986-196.857-192.054c0-106.07,88.135-192.058,196.857-192.058
			C1645.421,58.044,1733.559,144.032,1733.559,250.102z"/>
	</mask>
	<g id="g2893" mask="url(#mask2920_1_)">
		<g id="g2878">
			<path id="path623" fill="none" stroke="#000000" stroke-width="2.3057" d="M1724.756,189.08
				c-5.825-8.852-11.446-12.939-22.54-15.662"/>
			<path id="path1939" fill="none" stroke="#000000" stroke-width="1.5" d="M1395.521,106.382l17.895,17.783"/>
			<path id="path1941" fill="none" stroke="#000000" stroke-width="1.5" d="M1392.868,166.683
				c-40.64,28.395-50.539,86.012-49.049,85.681"/>
			<path id="path1943" fill="none" stroke="#000000" stroke-width="1.5" d="M1444.568,170.886
				c-4.189,30.181,6.963,63.262,30.159,98.613"/>
			<path id="path1945" fill="none" stroke="#000000" stroke-width="1.5" d="M1367.847,315.252
				c19.125,18.653,44.544,15.789,68.438,16.327"/>
			<path id="path1947" fill="none" stroke="#000000" stroke-width="1.5" d="M1494.449,390.242
				c-4.139,10.671-3.068,25.458-0.704,41.267"/>
			<path id="path1949" fill="none" stroke="#000000" stroke-width="1.5" d="M1465.86,84.454
				c15.213-14.862,47.849-24.453,90.455-28.807"/>
			<path id="path1951" fill="none" stroke="#000000" stroke-width="1.5" d="M1643.842,112.461
				c-10.586-19.24-29.24-34.356-48.978-48.919"/>
			<path id="path1953" fill="none" stroke="#000000" stroke-width="1.5" d="M1498.902,117.604
				c23.387,2.57,65.603,5.951,99.127,24.464"/>
			<path id="path1964" fill="none" stroke="#000000" stroke-width="1.5" d="M1624.193,208.068
				c-20.048,26.971-44.247,52.138-72.247,75.66"/>
			<path id="path1966" fill="none" stroke="#000000" stroke-width="1.5" d="M1564.538,355.828
				c25.663,13.97,53.77,19.976,87.825,14.551"/>
			<path id="path1968" fill="none" stroke="#000000" stroke-width="1.5" d="M1685.173,224.234
				c13.099,23.995,15.021,58.053,16.902,92.149"/>
			<path id="path1970" fill="none" stroke="#000000" stroke-width="1.5" d="M1697.435,172.826
				c10.789,0.353,21.245,5.915,31.153,20.046"/>
		</g>
		<g id="g2870">
			<path id="path1972" d="M1382.596,174.442c27.38,4.68,38.645,2.794,61.311,4.851c13.397-17.153,36.139-38.861,59.986-61.109
				c-9.842-14.982-19.13-30.316-30.823-39.77c-29.68,9.817-50.818,21.908-70.921,34.273
				C1389.53,134.123,1382.84,154.731,1382.596,174.442z"/>
			<path id="path2860" d="M1591.715,139.199c9.005,24.145,16.75,45.83,28.17,74.688c23.5,6.054,48.555,13.323,67.939,16.167
				c6.231-12.206,10.354-35.726,14.914-56.906c-15.483-23.432-37.57-43.644-59.986-63.696
				C1626.267,115.254,1609.075,126.563,1591.715,139.199z"/>
			<path id="path2862" d="M1470.751,263.681c30.218,4.85,59.371,9.699,87.823,14.549c8.797,26.946,9.934,53.888,12.925,80.833
				c-21.755,17.634-51.752,23.204-78.213,33.948c-30.79-19.416-43.325-41.06-60.979-62.078
				C1442.444,308.188,1453.627,285.572,1470.751,263.681z"/>
			<path id="path2864" d="M1330.645,240.149c0.042,1.354,10.667,2.879,14.529,1.37c4.436,27.701,10.245,54.508,25.777,74.989
				c-3.041,14.517-0.179,26.152,4.217,37.038c-26.933,7.365-24.593,11.348-35.15,16.004"/>
			<path id="path2866" d="M1429.537,415.505c25.599,6.611,44.248,19.447,63.975,12.804c5.801,8.018,21.854,13.817,63.742,15.545
				l-113.891,9.832"/>
			<path id="path2868" d="M1726.434,322.688c-7.472-5.372-15.203-10.496-24.856-13.742c-19.221,24.982-38.442,53.423-57.664,62.402
				c-0.354,15.401-2.815,29.159-9.778,39.405c14.519,0.954,29.681,0.904,46.397-1.575"/>
		</g>
	</g>
	<path id="path2923" fill="none" stroke="#000000" stroke-width="1.5051" stroke-linecap="round" stroke-linejoin="round" d="
		M1733.559,250.102c0,106.068-88.138,192.054-196.857,192.054c-108.723,0-196.857-85.986-196.857-192.054
		c0-106.07,88.135-192.058,196.857-192.058C1645.421,58.044,1733.559,144.032,1733.559,250.102z"/>
</g>
<path fill="#071923" stroke="#FFCF0E" stroke-width="24" stroke-miterlimit="10" d="M186.176,201.622
	c0.342-1.489,0.692-2.85,1.042-4.094c0.341-1.232,1.383-1.86,3.125-1.86h221.86c1.384,0,3.296,0.5,5.729,1.488
	c2.426,1,4.688,2.604,6.771,4.838c2.083,2.232,3.727,4.966,4.947,8.187c1.213,3.233,1.473,6.827,0.781,10.792L410.64,344.525
	c-2.433,14.885-7.291,27.793-14.582,38.702c-7.291,10.921-15.453,19.853-24.478,26.794c-9.033,6.954-18.146,12.036-27.342,15.26
	c-9.204,3.231-17.105,4.836-23.696,4.836H85.141c-6.25,0-13.541-1.604-21.874-4.836c-8.333-3.224-15.884-8.306-22.655-15.26
	c-6.77-6.941-12.067-15.873-15.884-26.794c-3.825-10.909-4.517-23.817-2.083-38.702l30.206-189.05
	c2.083-13.397,6.42-25.422,13.02-36.098c6.591-10.665,14.062-19.724,22.394-27.167c8.333-7.443,16.836-13.025,25.52-16.747
	c8.674-3.721,16.145-5.582,22.395-5.582h317.687c0.691,0,0.863,0.873,0.521,2.605c-0.35,1.745-0.521,2.861-0.521,3.35
	c0,1-0.61,2.36-1.823,4.093c-1.22,1.745-4.866,5.338-10.937,10.792c-6.079,5.466-15.543,13.525-28.385,24.189
	c-12.849,10.676-31.077,25.19-54.684,43.541H172.635c-1.742,0-4.085,0.628-7.031,1.861c-2.954,1.244-5.908,2.861-8.854,4.838
	c-2.953,1.989-5.728,4.35-8.333,7.071c-2.604,2.733-4.085,5.838-4.427,9.304L121.595,321.45c-1.042,5.467,0.432,10.176,4.427,14.143
	c3.987,3.978,7.202,5.955,9.634,5.955h162.49c0.692,0,2.083-0.49,4.167-1.49c2.083-0.987,4.167-2.477,6.25-4.465
	c2.083-1.977,3.987-4.211,5.729-6.699c1.733-2.477,2.945-4.954,3.645-7.442l6.25-38.701h-67.183l-69.267-71.453
	c-1.042-1.977-1.741-3.465-2.083-4.465C185.306,205.843,185.476,204.11,186.176,201.622z"/>
<path fill="#071923" stroke="#FFCF0E" stroke-width="24" stroke-miterlimit="10" d="M578.186,284.236
	c-1.041,0-1.48-0.859-1.302-2.604c0.17-1.731,0.261-2.85,0.261-3.35c0.342-3.468,1.383-5.699,3.125-6.699l92.182-74.428h94.786
	l2.083-12.653c1.042-6.442,0-12.28-3.125-17.49c-3.125-5.21-6.25-7.815-9.374-7.815H575.582l-43.747,270.92h-95.306l58.328-360.235
	h311.96c5.898,0,12.931,1.372,21.092,4.094c8.153,2.733,15.706,7.327,22.655,13.77c6.94,6.454,12.498,14.769,16.666,24.933
	c4.166,10.176,5.028,22.701,2.604,37.587l-32.29,199.469c-2.083,13.897-6.428,25.807-13.02,35.727
	c-6.6,9.932-13.98,18.119-22.134,24.562c-8.162,6.454-16.496,11.293-25,14.514c-8.512,3.234-16.063,5.096-22.653,5.582H554.75
	c-0.7,0-0.96-0.859-0.781-2.604c0.17-1.733,0.26-2.85,0.26-3.35c0.691-3.465,1.563-5.699,2.604-6.699l92.703-75.174h81.245
	c4.857,0,8.593-2.348,11.197-7.07c2.604-4.709,4.248-8.303,4.947-10.791l6.25-40.192h-174.99V284.236z"/>
<path fill="#071923" stroke="#FFCF0E" stroke-width="24" stroke-miterlimit="10" d="M999.88,181.526l-22.395,137.693
	c1.383,7.443,4.249,13.025,8.594,16.746c4.337,3.723,8.593,5.584,12.759,5.584h185.404c17.708,18.361,31.33,32.875,40.884,43.539
	c9.544,10.676,16.404,18.736,20.57,24.189c4.167,5.467,6.51,9.188,7.03,11.166c0.521,1.987,0.781,3.231,0.781,3.721
	c0,0.5-0.18,1.615-0.521,3.35c-0.352,1.744-0.871,2.604-1.563,2.604H933.738c-6.25,0-13.109-1.859-20.572-5.582
	c-7.47-3.721-14.151-9.047-20.05-16.002c-5.908-6.941-10.416-15.746-13.541-26.422c-3.125-10.664-3.476-23.189-1.041-37.586
	l30.206-189.05c2.083-13.397,6.42-25.422,13.02-36.098c6.591-10.665,14.063-19.724,22.395-27.167
	c8.333-7.443,16.836-13.025,25.52-16.747c8.674-3.721,16.146-5.582,22.396-5.582h317.687c0.691,0,0.862,0.873,0.521,2.605
	c-0.352,1.745-0.521,2.861-0.521,3.35c0,1-0.609,2.36-1.822,4.093c-1.221,1.745-4.866,5.338-10.938,10.792
	c-6.078,5.466-15.543,13.525-28.383,24.189c-12.851,10.676-31.078,25.19-54.686,43.541h-185.404c-1.741,0-4.084,0.628-7.031,1.861
	c-2.953,1.244-5.908,2.861-8.854,4.838c-2.952,1.989-5.728,4.35-8.333,7.071C1001.703,174.955,1000.222,178.06,999.88,181.526z"/>
</svg>
