<?xml version="1.0" encoding="utf-8"?>
<!-- Generator: Adobe Illustrator 16.0.0, SVG Export Plug-In . SVG Version: 6.00 Build 0)  -->
<!DOCTYPE svg PUBLIC "-//W3C//DTD SVG 1.1//EN" "http://www.w3.org/Graphics/SVG/1.1/DTD/svg11.dtd">
<svg version="1.1" id="Layer_1" xmlns="http://www.w3.org/2000/svg" xmlns:xlink="http://www.w3.org/1999/xlink" x="0px" y="0px"
	 width="2000px" height="500px" viewBox="0 0 2000 500" enable-background="new 0 0 2000 500" xml:space="preserve">
<g>
	<path fill="#071923" stroke="#FFCF0E" stroke-width="24" stroke-miterlimit="10" d="M186.176,201.622
		c0.342-1.489,0.692-2.85,1.042-4.094c0.341-1.232,1.383-1.86,3.125-1.86h221.86c1.384,0,3.296,0.5,5.729,1.488
		c2.425,1,4.687,2.605,6.771,4.838c2.083,2.232,3.727,4.966,4.947,8.187c1.213,3.233,1.473,6.827,0.782,10.792L410.64,344.525
		c-2.433,14.885-7.291,27.793-14.582,38.703c-7.291,10.92-15.453,19.852-24.478,26.793c-9.033,6.955-18.146,12.037-27.342,15.26
		c-9.204,3.232-17.105,4.836-23.696,4.836H85.141c-6.25,0-13.541-1.604-21.874-4.836c-8.333-3.223-15.884-8.305-22.655-15.26
		c-6.77-6.941-12.067-15.873-15.884-26.793c-3.825-10.91-4.517-23.818-2.083-38.703l30.206-189.05
		c2.083-13.397,6.42-25.422,13.02-36.098c6.591-10.665,14.062-19.724,22.394-27.167c8.333-7.443,16.836-13.025,25.52-16.747
		c8.674-3.721,16.145-5.582,22.395-5.582h317.687c0.692,0,0.863,0.873,0.521,2.605c-0.35,1.745-0.521,2.861-0.521,3.35
		c0,1-0.61,2.36-1.823,4.093c-1.22,1.745-4.866,5.338-10.937,10.792c-6.079,5.466-15.543,13.525-28.384,24.189
		c-12.849,10.676-31.077,25.19-54.684,43.541H172.635c-1.742,0-4.085,0.628-7.031,1.861c-2.954,1.244-5.908,2.861-8.854,4.838
		c-2.953,1.989-5.728,4.35-8.333,7.071c-2.604,2.733-4.085,5.838-4.427,9.304l-22.395,139.925
		c-1.042,5.467,0.432,10.176,4.427,14.143c3.987,3.977,7.202,5.955,9.634,5.955h162.49c0.692,0,2.083-0.49,4.167-1.49
		c2.083-0.988,4.167-2.477,6.25-4.465c2.083-1.977,3.987-4.211,5.729-6.699c1.733-2.477,2.945-4.955,3.645-7.443l6.25-38.701
		h-67.183l-69.267-71.453c-1.042-1.977-1.741-3.465-2.083-4.465C185.306,205.843,185.476,204.11,186.176,201.622z"/>
	<path fill="#071923" stroke="#FFCF0E" stroke-width="24" stroke-miterlimit="10" d="M562.186,284.236
		c-1.042,0-1.481-0.859-1.302-2.604c0.17-1.732,0.26-2.85,0.26-3.35c0.342-3.467,1.383-5.699,3.125-6.699l92.182-74.428h94.786
		l2.083-12.653c1.042-6.442,0-12.28-3.125-17.49c-3.125-5.21-6.25-7.815-9.374-7.815H559.582l-43.747,270.92h-95.306l58.329-360.235
		h311.959c5.899,0,12.931,1.372,21.092,4.094c8.154,2.733,15.706,7.327,22.655,13.77c6.941,6.454,12.499,14.769,16.666,24.933
		c4.167,10.176,5.029,22.701,2.604,37.587l-32.29,199.469c-2.083,13.898-6.428,25.807-13.02,35.727
		c-6.599,9.932-13.98,18.119-22.134,24.561c-8.162,6.455-16.495,11.293-24.999,14.514c-8.512,3.234-16.063,5.096-22.654,5.582
		H538.75c-0.7,0-0.96-0.859-0.781-2.604c0.17-1.734,0.26-2.85,0.26-3.35c0.691-3.465,1.562-5.699,2.604-6.699l92.703-75.174h81.245
		c4.858,0,8.593-2.348,11.197-7.07c2.604-4.709,4.248-8.303,4.948-10.791l6.25-40.193H562.186z"/>
	<path fill="#071923" stroke="#FFCF0E" stroke-width="24" stroke-miterlimit="10" d="M967.88,181.526l-22.395,137.693
		c1.383,7.443,4.249,13.025,8.594,16.746c4.337,3.723,8.593,5.584,12.759,5.584h185.404c17.708,18.361,31.33,32.875,40.884,43.539
		c9.544,10.676,16.404,18.736,20.57,24.189c4.167,5.467,6.51,9.188,7.031,11.166c0.521,1.988,0.781,3.232,0.781,3.721
		c0,0.5-0.18,1.615-0.521,3.35c-0.351,1.744-0.871,2.604-1.563,2.604H901.738c-6.25,0-13.109-1.859-20.572-5.582
		c-7.47-3.721-14.151-9.047-20.05-16.002c-5.908-6.941-10.416-15.746-13.541-26.422c-3.125-10.664-3.475-23.189-1.041-37.586
		l30.206-189.05c2.083-13.397,6.42-25.422,13.02-36.098c6.591-10.665,14.062-19.724,22.394-27.167
		c8.333-7.443,16.836-13.025,25.52-16.747c8.674-3.721,16.145-5.582,22.395-5.582h317.687c0.691,0,0.862,0.873,0.521,2.605
		c-0.351,1.745-0.521,2.861-0.521,3.35c0,1-0.61,2.36-1.822,4.093c-1.221,1.745-4.867,5.338-10.938,10.792
		c-6.078,5.466-15.543,13.525-28.383,24.189c-12.85,10.676-31.078,25.19-54.685,43.541H996.524c-1.742,0-4.085,0.628-7.032,1.861
		c-2.953,1.244-5.908,2.861-8.854,4.838c-2.953,1.989-5.728,4.35-8.333,7.071C969.703,174.955,968.222,178.06,967.88,181.526z"/>
	<path fill="#071923" stroke="#FFCF0E" stroke-width="24" stroke-miterlimit="10" d="M1245.253,402.951
		c1.562-7.443,5.479-13.828,11.744-19.166c6.261-5.33,13.086-8,20.469-8s13.088,2.67,17.113,8
		c4.027,5.338,5.254,11.723,3.691,19.166c-1.566,7.443-5.484,13.834-11.744,19.166c-6.266,5.338-13.087,8-20.47,8
		s-13.087-2.662-17.112-8C1244.917,416.785,1243.685,410.395,1245.253,402.951z"/>
	<path fill="#071923" stroke="#FFCF0E" stroke-width="24" stroke-miterlimit="10" d="M1384.64,305.822l-11.197,68.846
		c0.692,3.723,2.125,6.514,4.297,8.375c2.168,1.859,4.297,2.791,6.38,2.791h92.702c8.854,9.182,15.664,16.438,20.441,21.77
		c4.772,5.338,8.203,9.367,10.285,12.094c2.084,2.734,3.256,4.594,3.517,5.584c0.26,0.994,0.39,1.615,0.39,1.859
		c0,0.25-0.09,0.809-0.26,1.676c-0.176,0.871-0.436,1.301-0.781,1.301h-158.844c-3.125,0-6.555-0.93-10.285-2.789
		c-3.736-1.861-7.076-4.525-10.026-8.002c-2.954-3.471-5.208-7.873-6.771-13.211c-1.563-5.332-1.737-11.596-0.521-18.793
		l15.104-94.525c1.041-6.699,3.21-12.711,6.51-18.049c3.296-5.332,7.03-9.861,11.196-13.584c4.167-3.721,8.419-6.512,12.761-8.373
		c4.337-1.86,8.071-2.791,11.196-2.791h158.844c0.346,0,0.432,0.436,0.261,1.302c-0.175,0.873-0.261,1.43-0.261,1.676
		c0,0.5-0.305,1.18-0.911,2.045c-0.61,0.873-2.433,2.67-5.469,5.396c-3.039,2.732-7.771,6.764-14.191,12.096
		c-6.425,5.338-15.538,12.594-27.342,21.77h-92.702c-0.871,0-2.043,0.314-3.516,0.932c-1.478,0.621-2.954,1.43-4.427,2.418
		c-1.477,0.994-2.864,2.176-4.167,3.535C1385.551,302.537,1384.812,304.09,1384.64,305.822z"/>
	<path fill="#071923" stroke="#FFCF0E" stroke-width="24" stroke-miterlimit="10" d="M1727.847,290.191l-15.625,95.643
		c-1.217,7.941-3.646,14.762-7.291,20.467c-3.646,5.709-7.727,10.297-12.238,13.77c-4.517,3.477-9.114,6.018-13.802,7.629
		c-4.687,1.617-8.683,2.418-11.979,2.418h-117.7c-2.954,0-6.51-0.68-10.676-2.047c-4.166-1.359-8.032-3.656-11.588-6.885
		c-3.561-3.221-6.34-7.379-8.333-12.465c-1.998-5.082-2.389-11.352-1.172-18.793l15.624-96.387
		c1.212-7.688,3.646-14.264,7.291-19.723c3.645-5.455,7.723-9.922,12.238-13.398c4.513-3.471,9.07-6.076,13.672-7.814
		c4.597-1.733,8.633-2.605,12.108-2.605h117.961c2.949,0,6.466,0.687,10.546,2.046c4.076,1.367,7.853,3.664,11.327,6.885
		c3.472,3.227,6.25,7.385,8.333,12.467C1728.628,276.486,1729.058,282.75,1727.847,290.191z M1578.637,305.822l-11.197,68.846
		c0.171,2.732,0.912,5.275,2.214,7.629c1.303,2.361,2.645,3.537,4.037,3.537h82.025c2.429,0,4.427-1.053,5.988-3.164
		c1.563-2.105,3.125-4.773,4.688-8.002l11.197-68.475c-0.175-3.221-0.871-5.953-2.083-8.188c-1.217-2.232-2.604-3.348-4.166-3.348
		h-81.766c-2.433,0-4.387,1.18-5.859,3.535C1582.237,300.553,1580.545,303.094,1578.637,305.822z"/>
	<path fill="#071923" stroke="#FFCF0E" stroke-width="24" stroke-miterlimit="10" d="M1812.733,430.117l21.874-135.459h-39.061
		c-2.433,0-4.516,1.057-6.249,3.162c-1.738,2.111-3.215,4.779-4.428,8.002l-20.05,124.295h-47.653l21.873-135.832
		c1.213-7.938,3.646-14.699,7.291-20.281c3.646-5.582,7.724-10.17,12.238-13.77c4.513-3.594,9.115-6.199,13.802-7.814
		c4.688-1.611,8.765-2.419,12.239-2.419h161.969c2.949,0,6.465,0.687,10.546,2.046c4.076,1.367,7.897,3.664,11.457,6.885
		c3.557,3.227,6.335,7.385,8.334,12.467c1.993,5.088,2.384,11.352,1.171,18.793l-22.654,139.926h-47.393l19.529-121.689
		c0.521-3.223,0.086-6.326-1.302-9.305c-1.392-2.977-2.864-4.465-4.427-4.465h-39.58l-21.874,135.459H1812.733z"/>
</g>
</svg>
