<?xml version="1.0" encoding="UTF-8" standalone="no"?>
<!-- Created with Inkscape (http://www.inkscape.org/) -->

<svg
   xmlns:dc="http://purl.org/dc/elements/1.1/"
   xmlns:cc="http://creativecommons.org/ns#"
   xmlns:rdf="http://www.w3.org/1999/02/22-rdf-syntax-ns#"
   xmlns:svg="http://www.w3.org/2000/svg"
   xmlns="http://www.w3.org/2000/svg"
   xmlns:sodipodi="http://sodipodi.sourceforge.net/DTD/sodipodi-0.dtd"
   xmlns:inkscape="http://www.inkscape.org/namespaces/inkscape"
   xmlns:xlink="http://www.w3.org/1999/xlink"
   width="1799.5393"
   height="236.46536"
   id="svg4410"
   version="1.1"
   inkscape:version="0.48.4 r9939"
   sodipodi:docname="LEGO Ideas Wiki Wordmark.svg">
  <image xlink:href="ideas.svg" src="ideas.png" width="150" />
  <defs
     id="defs4412" />
  <sodipodi:namedview
     id="base"
     pagecolor="#ffffff"
     bordercolor="#666666"
     borderopacity="1.0"
     inkscape:pageopacity="0.0"
     inkscape:pageshadow="2"
     inkscape:zoom="0.66628164"
     inkscape:cx="847.08575"
     inkscape:cy="118.23268"
     inkscape:document-units="px"
     inkscape:current-layer="layer1"
     showgrid="false"
     showguides="true"
     inkscape:guide-bbox="true"
     fit-margin-top="0"
     fit-margin-left="0"
     fit-margin-right="0"
     fit-margin-bottom="0"
     inkscape:window-width="1366"
     inkscape:window-height="703"
     inkscape:window-x="0"
     inkscape:window-y="28"
     inkscape:window-maximized="1" />
  <metadata
     id="metadata4415">
    <rdf:RDF>
      <cc:Work
         rdf:about="">
        <dc:format>image/svg+xml</dc:format>
        <dc:type
           rdf:resource="http://purl.org/dc/dcmitype/StillImage" />
        <dc:title></dc:title>
      </cc:Work>
    </rdf:RDF>
  </metadata>
  <g
     inkscape:label="Layer 1"
     inkscape:groupmode="layer"
     id="layer1"
     transform="translate(85.444827,-531.44403)">
    <g
       id="g3023">
      <g
         id="g2993">
        <path
           style="fill:#ffffff;fill-opacity:1;stroke:none"
           d="m -39.31645,765.57908 0,-142.74611 79.552435,-58.48781 0,142.20271 z"
           id="path3087"
           inkscape:connector-curvature="0" />
        <path
           inkscape:connector-curvature="0"
           style="font-size:16px;text-anchor:middle;fill:#ffffff;fill-opacity:1;stroke:none;font-family:sans-serif"
           stroke-miterlimit="4"
           d="m -85.444827,536.19124 a 44.911069,22.226067 0 0 0 89.8206475,0 v 21.37364 a 44.911069,22.226067 0 0 1 -89.8206475,0 z"
           id="path3332-5" />
      </g>
      <g
         id="g3010">
        <g
           id="g3003">
          <path
             sodipodi:nodetypes="ccccc"
             d="m 99.912668,764.65644 0,-202.11639 39.523132,-27.05267 0,229.16906 -39.523132,0"
             style="font-size:80px;font-style:normal;font-variant:normal;font-weight:bold;font-stretch:condensed;line-height:125%;letter-spacing:0px;word-spacing:0px;fill:#0175c0;fill-opacity:1;stroke:none;font-family:Liberation Sans Narrow;-inkscape-font-specification:Liberation Sans Narrow Bold Condensed"
             id="path3915"
             inkscape:connector-curvature="0" />
          <path
             sodipodi:nodetypes="ccccsccccccccccccccscccc"
             d="m 376.05408,648.3641 c -2.1e-4,19.08398 -2.87362,35.89077 -8.62028,50.42049 -5.74706,14.42135 -13.6083,26.5114 -23.58374,36.27014 -9.97585,9.75888 -21.79482,17.13213 -35.45697,22.11991 -13.55403,4.98791 -28.1922,7.4818 -43.91458,7.4818 l -84.38107,0 0,-229.16906 74.62228,0 c 17.78256,2.1e-4 34.10144,2.22302 48.95662,6.66851 14.8549,4.44588 27.64974,11.27702 38.3846,20.49344 10.73448,9.21684 19.08366,20.92739 25.04762,35.13167 5.96342,14.20465 8.94531,31.06563 8.94552,50.5831 m -48.30605,0 c -1.5e-4,-13.33688 -1.84348,-24.77636 -5.52995,-34.31844 -3.57842,-9.54173 -8.62046,-17.34879 -15.12617,-23.42111 -6.50599,-6.18038 -14.31303,-10.73448 -23.42111,-13.66231 -8.99991,-2.92747 -18.97555,-4.39126 -29.92698,-4.39142 l -25.66563,0 0,155.00219 32.33418,0 c 9.6502,0 18.54156,-1.68065 26.67404,-5.04206 8.24061,-3.36132 15.34281,-8.34914 21.30668,-14.96348 6.072,-6.72268 10.78874,-15.0176 14.15025,-24.88492 3.46962,-9.86712 5.20454,-21.30658 5.20469,-34.31845"
             style="font-size:40px;font-style:normal;font-weight:normal;font-stretch:normal;line-height:125%;letter-spacing:0px;word-spacing:0px;fill:#0175c0;fill-opacity:1;stroke:none;font-family:Liberation Sans;-inkscape-font-specification:Liberation Sans Bold"
             id="path3917"
             inkscape:connector-curvature="0" />
          <path
             sodipodi:nodetypes="ccccccccccccc"
             d="m 408.42075,764.65644 0,-229.16906 139.51826,0 0,37.08344 -100.15776,0 0,57.57686 83.69796,0 0,37.08343 -83.69796,0 0,60.3419 105.52513,0 0,37.08343 -144.88563,0"
             style="font-size:80px;font-style:normal;font-variant:normal;font-weight:bold;font-stretch:condensed;line-height:125%;letter-spacing:0px;word-spacing:0px;fill:#0175c0;fill-opacity:1;stroke:none;font-family:Liberation Sans Narrow;-inkscape-font-specification:Liberation Sans Narrow Bold Condensed"
             id="path3919"
             inkscape:connector-curvature="0" />
          <path
             sodipodi:nodetypes="ccccccccccccccccccccc"
             d="m 748.31963,764.65644 -20.33081,-58.55278 -87.34122,0 -20.3308,58.55278 -47.98077,0 91.92784,-229.16906 39.94601,0 91.60257,229.16906 -47.49282,0 M 686.31877,604.12423 c -1.30131,-3.79492 -2.60247,-7.59003 -3.90353,-11.38524 -1.19288,-3.90336 -2.27719,-7.42735 -3.25293,-10.57206 -0.86755,-3.25272 -1.6266,-5.90927 -2.27708,-7.96968 -0.54223,-2.05996 7.45996,-3.19851 7.35165,-3.41556 -0.10874,0.3256 7.89365,1.51823 7.35161,3.57819 -0.54224,2.06041 -1.30128,4.66275 -2.27702,7.80705 -0.86757,3.14471 -1.9519,6.6687 -3.25294,10.57206 -1.19288,3.79521 -2.43983,7.59032 -3.74088,11.38524 l -22.60788,65.87188 49.21689,0 -22.60789,-65.87188"
             style="font-size:40px;font-style:normal;font-weight:normal;font-stretch:normal;line-height:125%;letter-spacing:0px;word-spacing:0px;fill:#0175c0;fill-opacity:1;stroke:none;font-family:Liberation Sans;-inkscape-font-specification:Liberation Sans Bold"
             id="path3921"
             inkscape:connector-curvature="0" />
          <path
             sodipodi:nodetypes="ccccscscccccscccccccccccscccccccccccccccccccccccc"
             d="m 976.18757,698.62189 c -2.2e-4,10.40947 -1.57245,19.89718 -4.71677,28.46318 -3.03623,8.45766 -7.86142,15.72249 -14.47556,21.79468 -6.50598,6.07212 -14.85519,10.7889 -25.04754,14.1502 -10.08426,3.25297 -22.17428,4.87944 -36.27021,4.87944 -12.46964,0 -23.4754,-1.35544 -33.01727,-4.06616 -9.43358,-2.71079 -17.56588,-6.7228 -24.39699,-12.03586 -6.83121,-5.31314 -18.08013,-14.92982 -24.32621,-34.22182 l 33.74313,-20.26482 c 1.08424,5.09636 3.77906,11.58052 6.48993,15.15867 2.06013,4.22887 6.05038,6.74446 9.62866,9.88894 3.57818,3.03607 8.02384,5.42157 13.33701,7.15643 5.4215,1.62649 11.98156,2.43972 19.68026,2.43972 13.33692,0 23.52942,-2.43967 30.57757,-7.31913 7.04786,-4.98777 10.57191,-12.7406 10.57204,-23.25844 -1.3e-4,-6.28892 -1.40977,-11.43941 -4.22886,-15.45143 -2.81931,-4.01186 -6.61441,-7.319 -11.38523,-9.92143 -4.66265,-2.60229 -10.08419,-4.77089 -16.26466,-6.50587 -6.07225,-1.73483 -12.4697,-3.41549 -19.19233,-5.04207 -6e-5,9e-5 -5.36741,-1.57214 -16.10198,-4.71673 -5.31319,-1.62637 -10.40946,-3.57811 -15.28879,-5.85528 -4.771,-2.27695 -9.27091,-4.9877 -13.49969,-8.13235 -4.12041,-3.14439 -7.75283,-6.99368 -10.89729,-11.54792 -3.03613,-4.6624 -5.42159,-10.08395 -7.15646,-16.26467 -1.73495,-6.18038 -2.60237,-13.44524 -2.60232,-21.79462 -5e-5,-11.38506 1.84328,-21.14385 5.52996,-29.27639 3.79505,-8.13214 8.99973,-14.74643 15.61407,-19.8429 6.72265,-5.20445 14.63813,-8.99954 23.74643,-11.38523 9.10813,-2.38527 19.08375,-3.578 29.92698,-3.57827 12.25257,2.7e-4 22.77039,1.193 31.55341,3.57827 8.78276,2.27727 16.10185,5.80127 21.95729,10.57201 5.96354,4.7712 12.83807,13.39147 16.19959,20.65612 l -32.62688,20.62356 c -6.37586,-8.82609 -5.96387,-8.96705 -12.03585,-13.95506 -5.96385,-4.98763 -14.5299,-7.48155 -25.69815,-7.48173 -6.9397,1.8e-4 -12.74075,0.75923 -17.4032,2.27705 -4.55419,1.40981 -8.18661,3.36156 -10.89734,5.85527 -2.71085,2.49409 -4.66262,5.42177 -5.85527,8.78295 -1.08437,3.25308 -1.62654,6.72288 -1.62645,10.40938 -9e-5,5.63856 1.08423,10.30107 3.25294,13.98757 2.27698,3.57838 5.42144,6.61446 9.43348,9.10822 4.01186,2.38562 8.78286,4.4458 14.31289,6.1806 5.52989,1.62656 11.65626,3.30725 18.37906,5.04201 5.8552,1.51819 11.65626,3.14464 17.40319,4.87941 5.74674,1.62657 11.22247,3.57833 16.4273,5.85528 5.31299,2.27715 10.24663,5.04219 14.80087,8.29498 4.55391,3.25303 8.45745,7.26496 11.71053,12.03583 3.3612,4.66267 5.96356,10.24683 7.80704,16.75263 1.95159,6.50594 2.92745,14.20452 2.92767,23.09578"
             style="font-size:80px;font-style:normal;font-variant:normal;font-weight:bold;font-stretch:condensed;line-height:125%;letter-spacing:0px;word-spacing:0px;fill:#0175c0;fill-opacity:1;stroke:none;font-family:Liberation Sans Narrow;-inkscape-font-specification:Liberation Sans Narrow Bold Condensed"
             id="path3923"
             inkscape:connector-curvature="0" />
        </g>
        <g
           id="g2997">
          <path
             d="m 1285.6594,764.90483 -50.519,0 -27.569,-134.3076 c -0.8662,-4.0648 -1.8284,-8.89875 -2.8868,-14.50193 -0.9624,-5.60284 -1.8766,-11.04106 -2.7425,-16.31468 -1.0586,-6.04226 -2.0208,-12.30447 -2.8868,-18.78655 -1.0585,6.48208 -2.117,12.79921 -3.1754,18.95138 -0.4813,2.63685 -0.9625,5.38343 -1.4435,8.23972 -0.4812,2.74673 -1.0104,5.4933 -1.5877,8.23973 -0.4812,2.63687 -0.9623,5.16371 -1.4433,7.58056 -0.3851,2.41711 -0.8182,4.61436 -1.2991,6.59177 l -27.4246,134.3076 -50.5191,0 -52.3955,-232.19559 43.1578,0 25.4038,129.19897 c 1.4434,7.03133 2.7905,13.9527 4.0415,20.76413 1.251,6.81155 2.4056,12.90897 3.4642,18.29219 1.1546,6.26225 2.2131,12.2498 3.1755,17.96261 1.4433,-8.12983 2.8386,-16.03994 4.1858,-23.73043 0.5773,-3.2958 1.2028,-6.70154 1.8764,-10.21724 0.6735,-3.51554 1.2991,-6.97623 1.8764,-10.38207 0.6736,-3.40567 1.2991,-6.64662 1.8765,-9.72289 0.6735,-3.18591 1.2509,-6.04238 1.7321,-8.56932 l 25.1151,-123.59595 47.6323,0 25.6926,123.59595 c 0.5771,2.63683 1.1545,5.60311 1.7321,8.89893 0.577,3.18611 1.1544,6.53694 1.732,10.05246 0.5772,3.40585 1.1545,6.8665 1.7321,10.38208 0.5772,3.40579 1.1064,6.75662 1.5878,10.05246 1.1544,7.69045 2.3092,15.4358 3.4641,23.23602 1.1545,-6.15228 2.3574,-12.52433 3.6084,-19.11616 1.0583,-5.60293 2.2612,-11.75528 3.6086,-18.457 1.3469,-6.70158 2.6941,-13.18347 4.0415,-19.44577 l 24.5379,-129.19897 43.1576,0 -52.5398,232.19559"
             style="font-size:144px;font-style:normal;font-variant:normal;font-weight:bold;font-stretch:normal;line-height:125%;letter-spacing:0px;word-spacing:0px;fill:#ffffff;fill-opacity:1;stroke:none;font-family:Liberation Sans;-inkscape-font-specification:Liberation Sans Bold"
             id="path4574"
             inkscape:connector-curvature="0" />
          <path
             d="m 1596.7925,764.91699 -66.3303,-106.86143 -22.8091,21.96688 0,84.89455 -38.6707,0 0,-232.71674 38.6707,0 0,105.5401 83.2405,-105.5401 45.0939,0 -78.9145,98.43803 85.3377,134.27871 -45.6182,0"
             style="font-size:144px;font-style:normal;font-variant:normal;font-weight:bold;font-stretch:normal;line-height:125%;letter-spacing:0px;word-spacing:0px;fill:#ffffff;fill-opacity:1;stroke:none;font-family:Liberation Sans;-inkscape-font-specification:Liberation Sans Bold"
             id="path4576"
             inkscape:connector-curvature="0" />
          <path
             sodipodi:nodetypes="ccccc"
             d="m 1381.7497,763.96977 0,-204.66489 40.0214,-27.39375 0,232.05864 -40.0214,0"
             style="font-size:80px;font-style:normal;font-variant:normal;font-weight:bold;font-stretch:condensed;line-height:125%;letter-spacing:0px;word-spacing:0px;fill:#ffffff;fill-opacity:1;stroke:none;font-family:Liberation Sans Narrow;-inkscape-font-specification:Liberation Sans Narrow Bold Condensed"
             id="path3915-3"
             inkscape:connector-curvature="0" />
          <path
             sodipodi:nodetypes="ccccc"
             d="m 1674.073,763.50268 0,-204.66489 40.0215,-27.39376 0,232.05865 -40.0215,0"
             style="font-size:80px;font-style:normal;font-variant:normal;font-weight:bold;font-stretch:condensed;line-height:125%;letter-spacing:0px;word-spacing:0px;fill:#ffffff;fill-opacity:1;stroke:none;font-family:Liberation Sans Narrow;-inkscape-font-specification:Liberation Sans Narrow Bold Condensed"
             id="path3915-3-8"
             inkscape:connector-curvature="0" />
        </g>
      </g>
    </g>
  </g>
</svg>
